<svg xmlns="http://www.w3.org/2000/svg" xmlns:xlink="http://www.w3.org/1999/xlink" width="1949" height="826" viewBox="0 0 1949 826"><defs><clipPath id="a"><rect width="1949" height="826" rx="4" transform="translate(379.539 2365)" fill="#f8f9fb"/></clipPath><linearGradient id="b" x1="0.418" y1="0.203" x2="0.417" y2="0.014" gradientUnits="objectBoundingBox"><stop offset="0" stop-color="#201833"/><stop offset="1" stop-color="#281d40"/></linearGradient><linearGradient id="c" x1="0.408" y1="0.48" x2="0.411" y2="0.196" xlink:href="#b"/></defs><g transform="translate(-379.539 -2365)" opacity="0.5" clip-path="url(#a)"><g transform="translate(432.539 2211.895)"><g transform="translate(0 0)"><path d="M718.379,1497.024c-191.876,0-372.29-77.862-508.019-219.237C74.695,1136.4,0,948.432,0,748.5s74.695-387.882,210.36-529.23C346.067,77.872,526.481,0,718.336,0c191.813,0,372.185,77.846,507.871,219.194,67.039,69.863,119.423,151.568,155.734,242.854a777.379,777.379,0,0,1,0,572.949c-36.29,91.286-88.7,173-155.734,242.859C1090.542,1419.188,910.192,1497.024,718.379,1497.024ZM718.7,308.471c-112.931,0-219.073,45.812-298.886,128.993C288.29,574.535,257.964,781.934,344.354,953.54c3.024,5.98,6.344,12.16,10.151,18.9a444.406,444.406,0,0,0,64.8,87.585c5.921,6.143,11.483,11.621,17.024,16.739,9.813,9.083,19.858,17.637,29.819,25.436,7.465,5.7,13.64,10.251,19.477,14.3a412.588,412.588,0,0,0,73.49,40.52c13.471,5.171,26.2,9.585,38.934,13.508a381.059,381.059,0,0,0,39.526,10.13,406.359,406.359,0,0,0,80.68,8.121c112.783,0,218.883-45.8,298.738-128.966,99.459-103.631,142.813-251.435,115.976-395.374-2.918-13.175-6.175-27.033-9.707-41.17a353.523,353.523,0,0,0-13.006-40.594,443.581,443.581,0,0,0-38.87-76.588l-.93-1.4c-3.891-5.9-8.29-12.583-12.858-18.859-7.719-10.865-15.924-21.328-24.363-31.109-5.752-6.619-11.018-12.4-16.094-17.674a423.4,423.4,0,0,0-83.979-67.61c-5.773-3.548-11.885-7.074-18.187-10.489A410.322,410.322,0,0,0,718.7,308.471Z" transform="translate(508.663 530.871)" fill="url(#b)"/><path d="M521.327,1138.968A420.876,420.876,0,0,1,436,1076.941q-8.04-7.568-15.821-15.676t-15.043-16.487C256.056,870.593,263.322,605.446,421.695,440.41S834.509,267.8,1001.661,423.152q8.04,7.568,15.821,15.676t15.043,16.487A443.077,443.077,0,0,1,1123.3,624.775q5.836,20.406,9.726,41.217c43.344,231.865-96.631,458.055-317.2,512.571-23.256,103.184-10.091,211.643,37.089,305.543l.648,1.351c359.468-71.282,610.241-412.5,582.6-792.728S1111.279,14.548,745.608.515,62.469,260.848,8.062,637.923s171.6,736.595,525.065,835.236a783.056,783.056,0,0,1-11.8-334.192Z" transform="translate(0)" fill="url(#c)"/></g></g></g></svg>