<svg xmlns="http://www.w3.org/2000/svg" xmlns:xlink="http://www.w3.org/1999/xlink" width="580" height="452.273" viewBox="0 0 580 452.273"><defs><linearGradient id="a" x1="0.015" y1="0.038" x2="0.885" y2="0.878" gradientUnits="objectBoundingBox"><stop offset="0" stop-color="#06ef95"/><stop offset="0.12" stop-color="#07ed94" stop-opacity="0.937"/><stop offset="0.353" stop-color="#0ae994" stop-opacity="0.769"/><stop offset="0.866" stop-color="#0ee394" stop-opacity="0.541"/><stop offset="1" stop-color="#14dd94" stop-opacity="0.2"/></linearGradient><linearGradient id="b" x1="0.015" y1="0.038" x2="0.885" y2="0.878" gradientUnits="objectBoundingBox"><stop offset="0" stop-color="#06ef95" stop-opacity="0"/><stop offset="0.263" stop-color="#0ee394" stop-opacity="0.498"/><stop offset="0.686" stop-color="#07ed94"/><stop offset="0.946" stop-color="#0ae994" stop-opacity="0.769"/><stop offset="1" stop-color="#14dd94" stop-opacity="0.329"/></linearGradient><linearGradient id="c" x1="0.015" y1="0.038" x2="0.885" y2="0.878" gradientUnits="objectBoundingBox"><stop offset="0" stop-color="#06ef95"/><stop offset="0.12" stop-color="#07ed94" stop-opacity="0.937"/><stop offset="0.353" stop-color="#0ae994" stop-opacity="0.769"/><stop offset="0.675" stop-color="#0ee394" stop-opacity="0.498"/><stop offset="1" stop-color="#14dd94" stop-opacity="0.2"/></linearGradient><linearGradient id="d" x1="0.535" y1="0.463" x2="1.039" y2="-0.084" gradientUnits="objectBoundingBox"><stop offset="0.003" stop-color="#06ef95" stop-opacity="0.2"/><stop offset="0.895" stop-color="#06ef95"/><stop offset="0.908" stop-color="#07ed94" stop-opacity="0.937"/><stop offset="0.932" stop-color="#0ae994" stop-opacity="0.769"/><stop offset="0.966" stop-color="#0ee394" stop-opacity="0.498"/><stop offset="1" stop-color="#14dd94" stop-opacity="0.2"/></linearGradient><linearGradient id="e" x1="0.018" y1="0.042" x2="0.889" y2="0.87" xlink:href="#c"/><linearGradient id="f" x1="0.02" y1="0.035" x2="0.887" y2="0.875" gradientUnits="objectBoundingBox"><stop offset="0" stop-color="#06ef95" stop-opacity="0"/><stop offset="0.04" stop-color="#06ed94" stop-opacity="0.071"/><stop offset="0.118" stop-color="#09ea94" stop-opacity="0.255"/><stop offset="0.226" stop-color="#0de594" stop-opacity="0.553"/><stop offset="0.359" stop-color="#13dd94" stop-opacity="0.957"/><stop offset="0.372" stop-color="#14dd94"/></linearGradient><linearGradient id="g" y1="0.5" x2="1" y2="0.5" gradientUnits="objectBoundingBox"><stop offset="0" stop-color="#2a2047"/><stop offset="1" stop-color="#31294f"/></linearGradient><linearGradient id="h" y1="0.5" x2="1" y2="0.5" gradientUnits="objectBoundingBox"><stop offset="0" stop-color="#06ef95" stop-opacity="0.2"/><stop offset="0.292" stop-color="#06ef95"/><stop offset="0.377" stop-color="#07ed94" stop-opacity="0.937"/><stop offset="0.542" stop-color="#0ae994" stop-opacity="0.769"/><stop offset="0.77" stop-color="#0ee394" stop-opacity="0.498"/><stop offset="1" stop-color="#14dd94" stop-opacity="0.2"/></linearGradient><linearGradient id="i" y1="0.5" x2="1" y2="0.5" gradientUnits="objectBoundingBox"><stop offset="0" stop-color="#312a56"/><stop offset="1" stop-color="#423572"/></linearGradient><linearGradient id="j" y1="0.5" x2="1" y2="0.5" gradientUnits="objectBoundingBox"><stop offset="0" stop-color="#ff8a0b"/><stop offset="1" stop-color="#f9ac30"/></linearGradient><linearGradient id="k" x1="0.141" y1="0.858" x2="0.849" y2="0.151" gradientUnits="objectBoundingBox"><stop offset="0" stop-color="#f77b00"/><stop offset="1" stop-color="#f9ac30"/></linearGradient><linearGradient id="l" x1="-0.617" y1="0.5" x2="1.617" y2="0.5" xlink:href="#k"/><linearGradient id="p" y1="0.5" x2="1" y2="0.5" gradientUnits="objectBoundingBox"><stop offset="0" stop-color="#d6d0ef"/><stop offset="1" stop-color="#b6b9dd"/></linearGradient><linearGradient id="q" y1="0.5" x2="1" y2="0.5" gradientUnits="objectBoundingBox"><stop offset="0" stop-color="#fff"/><stop offset="1" stop-color="#ece8f9"/></linearGradient><linearGradient id="t" x1="0.162" y1="0.149" x2="1.02" y2="1.04" gradientUnits="objectBoundingBox"><stop offset="0" stop-color="#009aff"/><stop offset="1" stop-color="#1387ce"/></linearGradient><linearGradient id="u" y1="0.5" x2="1" y2="0.5" gradientUnits="objectBoundingBox"><stop offset="0" stop-color="#36b8f2"/><stop offset="1" stop-color="#23b0e2"/></linearGradient><linearGradient id="w" x1="65.002" y1="40.579" x2="65.819" y2="40.579" gradientUnits="objectBoundingBox"><stop offset="0" stop-color="#ece8f9"/><stop offset="1" stop-color="#f4f4f9"/></linearGradient><linearGradient id="x" x1="0.5" y1="0" x2="0.5" y2="1" xlink:href="#h"/><linearGradient id="y" y1="0.5" x2="1" y2="0.5" gradientUnits="objectBoundingBox"><stop offset="0" stop-color="#d850f9"/><stop offset="1" stop-color="#a341f9"/></linearGradient><linearGradient id="ab" x1="1.068" y1="-0.059" x2="0.204" y2="0.792" gradientUnits="objectBoundingBox"><stop offset="0.106" stop-color="#06ef95" stop-opacity="0"/><stop offset="0.188" stop-color="#06ef95" stop-opacity="0.027"/><stop offset="0.308" stop-color="#06ef95" stop-opacity="0.11"/><stop offset="0.449" stop-color="#06ef95" stop-opacity="0.239"/><stop offset="0.607" stop-color="#06ef95" stop-opacity="0.42"/><stop offset="0.779" stop-color="#06ef95" stop-opacity="0.655"/><stop offset="0.959" stop-color="#06ef95" stop-opacity="0.933"/><stop offset="1" stop-color="#06ef95"/></linearGradient><linearGradient id="ac" x1="1.068" y1="-0.059" x2="0.204" y2="0.792" gradientUnits="objectBoundingBox"><stop offset="0" stop-color="#06ef95" stop-opacity="0.8"/><stop offset="1" stop-color="#06ef95" stop-opacity="0"/></linearGradient><linearGradient id="ae" y1="0.5" x2="1" y2="0.5" gradientUnits="objectBoundingBox"><stop offset="0" stop-color="#06ef95" stop-opacity="0.2"/><stop offset="0.714" stop-color="#06ef95"/><stop offset="0.748" stop-color="#07ed94" stop-opacity="0.937"/><stop offset="0.815" stop-color="#0ae994" stop-opacity="0.769"/><stop offset="0.907" stop-color="#0ee394" stop-opacity="0.498"/><stop offset="1" stop-color="#14dd94" stop-opacity="0.2"/></linearGradient><linearGradient id="af" y1="0.5" x2="1" y2="0.5" gradientUnits="objectBoundingBox"><stop offset="0" stop-color="#261d3f"/><stop offset="1" stop-color="#2d2649"/></linearGradient><linearGradient id="au" x1="0.973" y1="0.5" x2="1.972" y2="0.5" xlink:href="#g"/><linearGradient id="az" x1="23.074" y1="1.519" x2="24.146" y2="1.519" xlink:href="#p"/><linearGradient id="ba" x1="2.913" y1="0.5" x2="3.912" y2="0.5" xlink:href="#p"/><linearGradient id="bb" x1="23.054" y1="1.533" x2="24.126" y2="1.533" xlink:href="#q"/><linearGradient id="bc" x1="3.928" y1="0.238" x2="3.748" y2="0.999" gradientUnits="objectBoundingBox"><stop offset="0" stop-color="#13e888"/><stop offset="0.497" stop-color="#0ee086"/><stop offset="0.91" stop-color="#06ef95"/></linearGradient><linearGradient id="bd" x1="9.964" y1="11.638" x2="10.892" y2="11.876" xlink:href="#q"/><linearGradient id="be" x1="10.767" y1="24.353" x2="10.07" y2="25.35" xlink:href="#q"/><linearGradient id="bi" x1="1.864" y1="0.5" x2="2.864" y2="0.5" xlink:href="#g"/><linearGradient id="bn" x1="25.894" y1="-0.505" x2="26.966" y2="-0.505" xlink:href="#p"/><linearGradient id="bo" x1="5.587" y1="0.5" x2="6.586" y2="0.5" xlink:href="#p"/><linearGradient id="bp" x1="25.875" y1="-0.491" x2="26.947" y2="-0.491" xlink:href="#q"/><linearGradient id="bq" x1="7.01" y1="0.238" x2="6.83" y2="0.999" xlink:href="#bc"/><linearGradient id="br" x1="19.294" y1="9.907" x2="20.222" y2="10.145" xlink:href="#q"/><linearGradient id="bs" x1="20.046" y1="20.624" x2="19.349" y2="21.621" xlink:href="#q"/><linearGradient id="bv" x1="0.077" y1="0.796" x2="0.849" y2="0.151" xlink:href="#k"/><linearGradient id="bw" x1="6.932" y1="3.859" x2="7.373" y2="4.649" gradientUnits="objectBoundingBox"><stop offset="0" stop-color="#06ef95"/><stop offset="0.17" stop-color="#07ec94" stop-opacity="0.941"/><stop offset="0.499" stop-color="#0ce794" stop-opacity="0.78"/><stop offset="0.952" stop-color="#13de94" stop-opacity="0.529"/><stop offset="1" stop-color="#14dd94" stop-opacity="0.502"/></linearGradient><linearGradient id="by" x1="0.396" y1="0.78" x2="0.683" y2="0.009" xlink:href="#q"/><linearGradient id="bz" x1="0" y1="0.531" y2="0.531" xlink:href="#y"/><linearGradient id="ca" x1="0.146" y1="0.148" x2="0.853" y2="0.854" gradientUnits="objectBoundingBox"><stop offset="0" stop-color="#fff" stop-opacity="0"/><stop offset="0.02" stop-color="#f4f4f4" stop-opacity="0.008"/><stop offset="0.135" stop-color="#bcbcbc" stop-opacity="0.039"/><stop offset="0.254" stop-color="#8a8a8a" stop-opacity="0.075"/><stop offset="0.373" stop-color="#5f5f5f" stop-opacity="0.114"/><stop offset="0.493" stop-color="#3d3d3d" stop-opacity="0.149"/><stop offset="0.615" stop-color="#222" stop-opacity="0.184"/><stop offset="0.738" stop-color="#0f0f0f" stop-opacity="0.22"/><stop offset="0.865" stop-color="#040404" stop-opacity="0.259"/><stop offset="1" stop-color="#1a1a39" stop-opacity="0.302"/></linearGradient><linearGradient id="cb" x1="0.147" y1="0.15" x2="0.853" y2="0.863" xlink:href="#ca"/><linearGradient id="cc" x1="0.36" y1="0.279" x2="0.595" y2="0.658" gradientUnits="objectBoundingBox"><stop offset="0" stop-color="#1a1a39" stop-opacity="0.302"/><stop offset="0.141" stop-color="#1a1a39" stop-opacity="0.302"/><stop offset="1" stop-color="#1a1a39" stop-opacity="0.302"/></linearGradient></defs><g transform="translate(1853.99 -3020.071)"><path d="M-864.539,3762.542a22.336,22.336,0,0,0,11.246-3.031l56.03-32.2a8.053,8.053,0,0,0,4.026-7.033,8.055,8.055,0,0,0-4.026-7.035l-101.291-58.363a19.084,19.084,0,0,0-19.186,0l-58.628,33.71a7.423,7.423,0,0,0-3.711,6.485,7.422,7.422,0,0,0,3.711,6.484l100.582,57.95A22.334,22.334,0,0,0-864.539,3762.542Zm-43.586-109.072a17.909,17.909,0,0,1,9.019,2.43l101.191,58.305a6.941,6.941,0,0,1,3.466,6.062,6.939,6.939,0,0,1-3.466,6.06l-55.975,32.166a21.237,21.237,0,0,1-21.342,0L-975.714,3700.6a6.311,6.311,0,0,1-3.152-5.511,6.311,6.311,0,0,1,3.152-5.512l58.57-33.677A17.915,17.915,0,0,1-908.125,3653.47Z" transform="translate(-480.754 -337.027)" fill="url(#a)"/><path d="M-1024.539,3853.542a22.336,22.336,0,0,0,11.246-3.031l56.03-32.2a8.052,8.052,0,0,0,4.026-7.032,8.055,8.055,0,0,0-4.026-7.035l-101.292-58.363a19.083,19.083,0,0,0-19.185,0l-58.628,33.711a7.422,7.422,0,0,0-3.711,6.485,7.422,7.422,0,0,0,3.711,6.484l100.582,57.95A22.335,22.335,0,0,0-1024.539,3853.542Zm-43.155-107.988a17.556,17.556,0,0,1,8.838,2.381l99.158,57.135a6.8,6.8,0,0,1,3.4,5.94,6.8,6.8,0,0,1-3.4,5.938l-54.85,31.52a20.815,20.815,0,0,1-20.914,0l-98.463-56.73a6.182,6.182,0,0,1-3.089-5.4,6.183,6.183,0,0,1,3.089-5.4l57.393-33A17.561,17.561,0,0,1-1067.694,3745.554Z" transform="translate(-403.091 -381.198)" fill="url(#b)"/><path d="M-1013.42,3724.175l-121.829-70.59.58-1.018,122.018,71a.454.454,0,0,0,.519-.043l.623-.518,1.2.692-2.274,2.286-1.173-.676.438-.482A.423.423,0,0,0-1013.42,3724.175Z" transform="translate(-392.961 -328.295)" fill="url(#c)"/><g transform="translate(-1775.985 3324.691)"><path d="M-1316.016,3654.494" transform="translate(1476.851 -3653.986)" fill="#00f988"/><path d="M-1676.916,3748.789l160.294-94.336-.584-1.015-160.543,94.483Z" transform="translate(1677.749 -3653.438)" fill="url(#d)"/></g><path d="M-1399.005,3501.514l-82.784-49.32.691-1.221,82.784,49.319Z" transform="translate(-213.09 -223.658)" fill="url(#e)"/><path d="M-1654.156,3340.3l-60.677-35.408.507-.876,60.677,35.408Z" transform="translate(-92.13 -147.382)" fill="url(#f)"/><path d="M-1886.374,3716.732a3.062,3.062,0,0,1-1.482-2.6c-.01-.545-.022-1.478-.036-1.992-.141-5.509,61.117,28.48,64.49,26.678l20.227-77.659a15.065,15.065,0,0,1,15.189,0l102.572,53.848c2.5,1.457,2.2,3.693,2.068,7.539-.021.612-.037,1.615-.037,2.185,0,1.6-1.627,2.714-2.721,3.331l-81.133,47.3c-5.535,3.226-2.305,8.907-7.84,5.681Z" transform="translate(34.491 -335.282)" fill="url(#g)"/><path d="M-1728.376,3801.961a19,19,0,0,1-10.561-3.3l-146.965-85.935a6.652,6.652,0,0,1-3.324-5.81,6.654,6.654,0,0,1,3.324-5.812h0l83.868-48.71a15.642,15.642,0,0,1,15.731,0l149.326,88.281.06.072c2.548,3.059,3.475,4.966,3.2,6.583-.324,1.9-2.243,3.054-5.15,4.794l-.344.207-80,47.115A18.13,18.13,0,0,1-1728.376,3801.961Zm-156.983-99.929a5.589,5.589,0,0,0-2.789,4.881,5.587,5.587,0,0,0,2.789,4.88l146.993,85.952a17.25,17.25,0,0,0,18.612.771l80.335-47.316c2.65-1.588,4.4-2.637,4.641-4.052.209-1.226-.688-2.968-2.907-5.641l-149.162-88.186a14.564,14.564,0,0,0-14.644,0l-83.869,48.71Z" transform="translate(35.235 -330.358)" fill="url(#h)"/><path d="M-1884.953,3696.292l81.712-47.633a15.066,15.066,0,0,1,15.189,0l101.882,58.859a5.682,5.682,0,0,1,0,9.794l-81.133,47.3c-5.534,3.226-3.383,8.383-8.917,5.157l-108.733-62.781A6.2,6.2,0,0,1-1884.953,3696.292Z" transform="translate(34.558 -328.315)" fill="url(#i)"/><g transform="translate(-1818.971 3342.293)"><path d="M-1770.609,3764.607c0-8.62-6.988-19.643-15.609-24.62h0c-8.621-4.977-18.306,4.528-18.306,13.149v.192l.014.005c0,2.9,3.281,6.776,9.041,10.1,8.278,4.78,18.527,6.611,22.891,4.091a3.546,3.546,0,0,0,1.936-2.737l.034.011Z" transform="translate(1807.012 -3721.874)" fill="url(#j)"/><ellipse cx="11.176" cy="11.176" rx="11.176" ry="11.176" transform="translate(6.081 0)" fill="url(#k)"/><ellipse cx="7.555" cy="17.967" rx="7.555" ry="17.967" transform="matrix(0.378, -0.926, 0.926, 0.378, 0, 37.378)" fill="url(#l)"/></g><g transform="translate(-1761.064 3308.887)"><path d="M-1639.842,3689.168c0-8.621-6.988-19.643-15.609-24.62h0c-8.621-4.977-18.306,4.528-18.306,13.149v.193l.014,0c0,2.9,3.281,6.776,9.041,10.1,8.278,4.78,18.527,6.611,22.891,4.091a3.546,3.546,0,0,0,1.936-2.737l.033.011Z" transform="translate(1676.245 -3646.435)" fill="url(#j)"/><ellipse cx="11.176" cy="11.176" rx="11.176" ry="11.176" transform="translate(6.081)" fill="url(#k)"/><ellipse cx="7.555" cy="17.967" rx="7.555" ry="17.967" transform="matrix(0.378, -0.926, 0.926, 0.378, 0, 37.378)" fill="url(#l)"/></g><path d="M-1638.157,3858.97c-1.865-1.432-1.482-1.432-1.482-2.6,0-.544-.036-4.788-.036-5.3,0-4.311-.487-6.819,2.885-8.622l82.909-40.126a15.065,15.065,0,0,1,15.189,0l41.141,15.338c2.5,1.457,2.2,3.7,2.067,7.544-.021.612-.037,4.554-.037,5.125,0,1.6-1.627,2.713-2.721,3.33l-82.211,48.373a17.74,17.74,0,0,1-17.887,0Z" transform="translate(-103.795 -413.933)" fill="url(#p)"/><path d="M-1636.705,3831.229l82.79-48.71a15.064,15.064,0,0,1,15.189,0l40.45,23.293a5.682,5.682,0,0,1,0,9.795l-82.211,48.373a17.739,17.739,0,0,1-17.887,0l-38.331-22.058A6.2,6.2,0,0,1-1636.705,3831.229Z" transform="translate(-103.76 -402.898)" fill="url(#q)"/><g transform="translate(-1713.815 3413.414)"><path d="M-1525.081,3882.986l-.007-2.891-.034-.268-.289-.168c-.155-.089-.609-.351-6.184-1.534l-.825-1.144c1.869-2.491,2.394-3.351,2.372-3.743v-2.8l-1.443,1.787-2.409-1.391c-.532-.307-.737-.425-7.018,1.263l-1.975-.472a17.686,17.686,0,0,0-2.809-3.565l-.337-.194h-5.383c-.834,0-1.117,0-3.5,3.77l-1.955.468c-6.4-1.6-6.574-1.5-7.143-1.175l-2.2,1.268-1.655-1.759v2.856h0c-.069.37.443,1.183,2.5,3.737l-.807,1.127c-6.487,1.48-6.49,1.634-6.5,2.077l0,2.893.03.27.293.169c.151.087.6.348,6.184,1.531l.119.166-1.662,1.882v2.768c-.02.24.13.328.329.443l3.523,2.034c.541.313.734.423,7.018-1.259l1.982.477a17.661,17.661,0,0,0,2.8,3.561l.336.194,5.434,0c.784-.006,1.057-.008,3.432-3.761l1.951-.47c6.423,1.6,6.615,1.485,7.166,1.166l3.526-2.036c.158-.092.287-.166.322-.31h0a.42.42,0,0,0,0-.179V3887.1l-1.836-.4-.229-1.112.373-.518C-1525.092,3883.583-1525.084,3883.431-1525.081,3882.986Zm-29.706-4.777a13.013,13.013,0,0,1,11.776-.016c2,1.147,2.772,2.733,2.33,4.223l-8.48,3.009-7.293-2.854-.751-.8C-1557.284,3880.489-1556.48,3879.191-1554.787,3878.209Z" transform="translate(1572.676 -3865.009)" fill="url(#g)"/><g transform="translate(0 0)"><path d="M-1532.392,3879.749l.814-1.131c6.486-1.481,6.493-1.632,6.5-2.077l-.007-2.891-.034-.268-.289-.167c-.155-.089-.609-.352-6.184-1.535l-.825-1.144c2.773-3.695,2.588-3.8,2.049-4.113l-3.529-2.038c-.532-.307-.737-.426-7.018,1.263l-1.975-.472a17.694,17.694,0,0,0-2.81-3.565l-.336-.194h-5.383c-.834,0-1.117,0-3.5,3.771l-1.955.468c-6.4-1.6-6.574-1.5-7.143-1.176l-3.526,2.036c-.555.321-.75.433,2.17,4.066l-.807,1.127c-6.487,1.48-6.49,1.634-6.5,2.077l0,2.893.03.27.293.169c.151.087.6.347,6.184,1.531l.818,1.144c-2.765,3.691-2.58,3.8-2.032,4.114l3.523,2.035c.541.313.734.424,7.018-1.259l1.982.476a17.727,17.727,0,0,0,2.8,3.561l.336.194h5.434c.784-.006,1.057-.008,3.432-3.76l1.951-.47c6.423,1.595,6.615,1.484,7.166,1.165l3.526-2.036C-1529.654,3883.494-1529.459,3883.382-1532.392,3879.749Zm-22.367-1.186c-3.259-1.873-3.271-4.917-.027-6.8a13.013,13.013,0,0,1,11.776-.016c3.259,1.873,3.271,4.918.027,6.8l-.017.01A13.037,13.037,0,0,1-1554.76,3878.564Z" transform="translate(1572.676 -3861.418)" fill="url(#i)"/></g></g><path d="M-1441.922,3837.646l-16.036-9.259c-4.1-2.366-4.1-6.2,0-8.568h0a16.4,16.4,0,0,1,14.839,0l16.036,9.259c4.1,2.366,4.1,6.2,0,8.569h0A16.4,16.4,0,0,1-1441.922,3837.646Z" transform="translate(-203.344 -423.838)" fill="url(#t)"/><path d="M-1457.956,3822.2h0a16.4,16.4,0,0,1,14.839,0l16.036,9.26a6.046,6.046,0,0,1,2.866,3.091c.665-1.919-.289-3.989-2.866-5.478l-16.036-9.259a16.4,16.4,0,0,0-14.839,0h0c-2.577,1.488-3.531,3.557-2.866,5.477A6.049,6.049,0,0,1-1457.956,3822.2Z" transform="translate(-203.348 -423.838)" fill="url(#u)"/><path d="M-1425.147,3852.57l3.219,1.859a16.4,16.4,0,0,0,14.839,0h0c2.934-1.694,3.766-4.142,2.5-6.264h-20.557Z" transform="translate(-223.339 -440.62)" fill="url(#p)"/><path d="M-1422.049,3844.8h0c-4.13-2.385-4.13-6.251,0-8.636h0a16.525,16.525,0,0,1,14.957,0h0c4.131,2.385,4.131,6.251,0,8.636h0A16.53,16.53,0,0,1-1422.049,3844.8Z" transform="translate(-223.339 -432.936)" fill="url(#w)"/><path d="M-1162.7,3467.295l-.592-1.01,87.738-51.056a9.753,9.753,0,0,0,4.807-8.387v-32.352h1.17v32.352a10.932,10.932,0,0,1-5.385,9.4Z" transform="translate(-378.404 -183.959)" fill="url(#x)"/><path d="M-1119.682,3166.917l188.227,109.354a5.66,5.66,0,0,0,8.5-4.895V3138.741a11.12,11.12,0,0,0-5.56-9.63l-187.446-108.231a5.966,5.966,0,0,0-8.949,5.191l.559,132.778A9.377,9.377,0,0,0-1119.682,3166.917Z" transform="translate(-398.329)" opacity="0.4" fill="url(#y)"/><path d="M-1135.905,3175.03l188.227,109.354a5.66,5.66,0,0,0,8.5-4.894V3146.853a11.119,11.119,0,0,0-5.56-9.63l-187.446-108.232a5.967,5.967,0,0,0-8.95,5.191l.559,132.778A9.377,9.377,0,0,0-1135.905,3175.03Z" transform="translate(-389.908 -4.211)" opacity="0.8" fill="url(#y)"/><path d="M-1152.129,3183.141-963.9,3292.5a5.66,5.66,0,0,0,8.5-4.895V3154.965a11.119,11.119,0,0,0-5.56-9.63L-1148.4,3037.1a5.967,5.967,0,0,0-8.95,5.191l.559,132.777A9.377,9.377,0,0,0-1152.129,3183.141Z" transform="translate(-381.487 -8.421)" fill="url(#y)"/><path d="M-1122.292,3051.911l-26.222-15.164a5.967,5.967,0,0,0-8.95,5.2l.559,132.982a9.391,9.391,0,0,0,4.666,8.082l131.71,76.638" transform="translate(-381.43 -8.235)" fill="#0e0914" opacity="0.1"/><path d="M-1394.738,3304.1l-44.373,25.621-.506-.877,44.373-25.621" transform="translate(-234.979 -146.97)" fill="url(#ab)"/><path d="M-1692.607,3480.908l-44.373,25.621-.506-.877,44.373-25.621" transform="translate(-80.372 -238.741)" fill="url(#ac)"/><g transform="translate(-1819.067 3131.019)"><path d="M-1737.218,3357.177l86.364-50.344a15.186,15.186,0,0,1,15.3,0l87.357,50.923a2.812,2.812,0,0,1,0,4.859l-86,50.131a17.885,17.885,0,0,1-18.013,0l-85.006-49.552A3.482,3.482,0,0,1-1737.218,3357.177Z" transform="translate(1739.453 -3278.789)" fill="url(#i)"/><path d="M-1643.752,3417.245a18.374,18.374,0,0,1-9.262-2.5l-85.006-49.552a3.95,3.95,0,0,1-1.979-3.446,3.95,3.95,0,0,1,1.979-3.446l86.365-50.344a15.722,15.722,0,0,1,15.807,0l87.357,50.922a3.286,3.286,0,0,1,1.647,2.868,3.286,3.286,0,0,1-1.647,2.866l-86,50.131A18.374,18.374,0,0,1-1643.752,3417.245ZM-1729.075,3359l.232.4a2.677,2.677,0,0,0-1.341,2.334,2.676,2.676,0,0,0,1.341,2.333l77.176,44.989a15.806,15.806,0,0,0,15.89,0l78.078-45.514a2.072,2.072,0,0,0,1.039-1.808,2.072,2.072,0,0,0-1.039-1.808l-79.311-46.232a13.345,13.345,0,0,0-13.424,0l-78.41,45.706Z" transform="translate(1740 -3279.34)" fill="url(#ae)"/><path d="M-1737.218,3357.177l86.364-50.344a15.186,15.186,0,0,1,15.3,0l87.357,50.923a2.812,2.812,0,0,1,0,4.859l-86,50.131a17.885,17.885,0,0,1-18.013,0l-85.006-49.552A3.482,3.482,0,0,1-1737.218,3357.177Z" transform="translate(1739.453 -3278.789)" fill="url(#af)"/><path d="M-1737.218,3330.171l86.364-50.344a15.186,15.186,0,0,1,15.3,0l87.357,50.923a2.812,2.812,0,0,1,0,4.859l-86,50.131a17.881,17.881,0,0,1-18.013,0l-85.006-49.552A3.482,3.482,0,0,1-1737.218,3330.171Z" transform="translate(1739.453 -3264.771)" fill="url(#g)"/><path d="M-1737.218,3303.165l86.364-50.344a15.187,15.187,0,0,1,15.3,0l87.357,50.923a2.812,2.812,0,0,1,0,4.859l-86,50.131a17.885,17.885,0,0,1-18.013,0l-85.006-49.553A3.482,3.482,0,0,1-1737.218,3303.165Z" transform="translate(1739.453 -3250.754)" fill="url(#i)"/></g><g transform="translate(-1792.999 3146.983)"><path d="M-1510.813,3312.362l-44.538-25.717a1.18,1.18,0,0,1,0-2.236h0a4.28,4.28,0,0,1,3.873,0l44.538,25.716a1.181,1.181,0,0,1,0,2.237h0A4.28,4.28,0,0,1-1510.813,3312.362Z" transform="translate(1618.507 -3283.946)" fill="#f40662"/><path d="M-1423.9,3362.543l-15.492-8.945a1.18,1.18,0,0,1,0-2.236h0a4.279,4.279,0,0,1,3.873,0l15.492,8.945a1.18,1.18,0,0,1,0,2.236h0A4.281,4.281,0,0,1-1423.9,3362.543Z" transform="translate(1558.321 -3318.698)" fill="#eae6ff"/><path d="M-1544.726,3320.564l-15.879-9.168a1.18,1.18,0,0,1,0-2.236h0a4.28,4.28,0,0,1,3.873,0l15.879,9.168a1.18,1.18,0,0,1,0,2.236h0A4.277,4.277,0,0,1-1544.726,3320.564Z" transform="translate(1621.234 -3296.793)" fill="#6f00ff"/><path d="M-1494.8,3349.391l-15.879-9.168a1.18,1.18,0,0,1,0-2.236h0a4.279,4.279,0,0,1,3.873,0l15.879,9.168a1.18,1.18,0,0,1,0,2.236h0A4.279,4.279,0,0,1-1494.8,3349.391Z" transform="translate(1595.32 -3311.755)" fill="#eae6ff"/><path d="M-1516.677,3364.658l-29.434-17a1.18,1.18,0,0,1,0-2.236h0a4.278,4.278,0,0,1,3.872,0l29.434,16.995a1.181,1.181,0,0,1,0,2.237h0A4.281,4.281,0,0,1-1516.677,3364.658Z" transform="translate(1613.711 -3315.616)" fill="#6f00ff"/><path d="M-1575.5,3330.693l-10.069-5.814a1.18,1.18,0,0,1,0-2.236h0a4.278,4.278,0,0,1,3.873,0l10.07,5.814a1.18,1.18,0,0,1,0,2.236h0A4.279,4.279,0,0,1-1575.5,3330.693Z" transform="translate(1634.191 -3303.791)" fill="#eae6ff"/><path d="M-1445.619,3377.789l-14.33-8.274a1.18,1.18,0,0,1,0-2.236h0a4.278,4.278,0,0,1,3.873,0l14.33,8.274a1.18,1.18,0,0,1,0,2.236h0A4.28,4.28,0,0,1-1445.619,3377.789Z" transform="translate(1568.989 -3326.959)" fill="#f40662"/><path d="M-1625.033,3339.4l-10.844-6.262a1.18,1.18,0,0,1,0-2.236h0a4.28,4.28,0,0,1,3.873,0l10.844,6.261a1.18,1.18,0,0,1,0,2.236h0A4.281,4.281,0,0,1-1625.033,3339.4Z" transform="translate(1660.303 -3308.079)" fill="#6f00ff"/><path d="M-1554.235,3380.28l-42.989-24.822a1.18,1.18,0,0,1,0-2.236h0a4.278,4.278,0,0,1,3.873,0l42.989,24.822a1.181,1.181,0,0,1,0,2.237h0A4.281,4.281,0,0,1-1554.235,3380.28Z" transform="translate(1640.241 -3319.663)" fill="#85d61d"/><path d="M-1641.057,3358.047l-18.977-10.957a1.18,1.18,0,0,1,0-2.236h0a4.279,4.279,0,0,1,3.873,0l18.977,10.957a1.181,1.181,0,0,1,0,2.237h0A4.278,4.278,0,0,1-1641.057,3358.047Z" transform="translate(1672.842 -3315.32)" fill="#f40662"/><path d="M-1594.79,3412.658l-9.682-5.591a1.18,1.18,0,0,1,0-2.236h0a4.277,4.277,0,0,1,3.873,0l9.682,5.59a1.181,1.181,0,0,1,0,2.237h0A4.28,4.28,0,0,1-1594.79,3412.658Z" transform="translate(1644.003 -3346.451)" fill="#85d61d"/><path d="M-1655.951,3377.344-1685,3360.573a1.18,1.18,0,0,1,0-2.236h0a4.277,4.277,0,0,1,3.873,0l29.047,16.771a1.18,1.18,0,0,1,0,2.236h0A4.28,4.28,0,0,1-1655.951,3377.344Z" transform="translate(1685.799 -3322.318)" fill="#6f00ff"/><path d="M-1559.424,3405.181l-41.827-24.151a1.18,1.18,0,0,1,0-2.236h0a4.28,4.28,0,0,1,3.873,0l41.827,24.151a1.18,1.18,0,0,1,0,2.236h0A4.28,4.28,0,0,1-1559.424,3405.181Z" transform="translate(1642.331 -3332.936)" fill="#6f00ff"/></g><g transform="translate(-1790.312 3325.653)"><path d="M-1705.891,3727.029c0-8.621-6.988-19.643-15.608-24.62h0c-8.62-4.978-18.306,4.528-18.306,13.148v.193l.014,0c0,2.9,3.281,6.776,9.041,10.1,8.278,4.779,18.526,6.611,22.891,4.091a3.547,3.547,0,0,0,1.935-2.738l.033.011Z" transform="translate(1742.294 -3684.296)" fill="url(#j)"/><ellipse cx="11.176" cy="11.176" rx="11.176" ry="11.176" transform="translate(6.081 0)" fill="url(#k)"/><ellipse cx="7.555" cy="17.967" rx="7.555" ry="17.967" transform="matrix(0.378, -0.926, 0.926, 0.378, 0, 37.378)" fill="url(#l)"/></g><g transform="translate(-1780.143 3366.33)"><path d="M-1682.926,3818.887c0-8.62-6.988-19.643-15.609-24.62h0c-8.62-4.977-18.306,4.528-18.306,13.149v.193l.014,0c0,2.9,3.28,6.775,9.041,10.1,8.278,4.78,18.527,6.611,22.891,4.091a3.547,3.547,0,0,0,1.936-2.737l.033.011Z" transform="translate(1719.329 -3776.154)" fill="url(#j)"/><ellipse cx="11.176" cy="11.176" rx="11.176" ry="11.176" transform="translate(6.081)" fill="url(#k)"/><ellipse cx="7.555" cy="17.967" rx="7.555" ry="17.967" transform="matrix(0.378, -0.926, 0.926, 0.378, 0, 37.378)" fill="url(#l)"/></g><g transform="translate(-1749.498 3351.538)"><path d="M-1616.12,3785.484c0-8.62-6.988-19.643-15.609-24.62h0c-8.62-4.977-18.306,4.529-18.306,13.149v.192l.014.005c0,2.9,3.281,6.776,9.041,10.1,8.278,4.78,18.527,6.612,22.892,4.091a3.546,3.546,0,0,0,1.936-2.737l.033.011Z" transform="translate(1652.523 -3742.75)" fill="url(#j)"/><ellipse cx="11.176" cy="11.176" rx="11.176" ry="11.176" transform="translate(6.081)" fill="url(#k)"/><ellipse cx="7.555" cy="17.967" rx="7.555" ry="17.967" transform="matrix(0.378, -0.926, 0.926, 0.378, 0, 37.378)" fill="url(#l)"/></g><g transform="translate(-1719.6 3334.91)"><path d="M-1543.808,3745.536c0-8.62-6.988-19.643-15.609-24.62h0c-8.62-4.977-18.306,4.528-18.306,13.149v.193l.014,0c0,2.9,3.28,6.776,9.041,10.1,8.278,4.779,18.527,6.611,22.891,4.091a3.547,3.547,0,0,0,1.936-2.737l.033.01Z" transform="translate(1580.211 -3702.802)" fill="url(#j)"/><ellipse cx="11.176" cy="11.176" rx="11.176" ry="11.176" transform="translate(6.081 0)" fill="url(#k)"/><ellipse cx="7.555" cy="17.967" rx="7.555" ry="17.967" transform="matrix(0.378, -0.926, 0.926, 0.378, 0, 37.378)" fill="url(#l)"/></g><path d="M-797.025,3714.519l-100.69-58.017a18.367,18.367,0,0,0-18.51,0l-58.28,33.51a6.92,6.92,0,0,0,0,11.931l99.984,57.6a21.628,21.628,0,0,0,21.8,0l55.7-32.006A7.553,7.553,0,0,0-797.025,3714.519Z" transform="translate(-481.803 -337.854)" fill="url(#au)"/><path d="M-977.915,3728.891v3.584l2.015-1.985Z" transform="translate(-481.805 -374.207)" fill="#31294f"/><path d="M-797.025,3708.027l-100.69-58.016a18.365,18.365,0,0,0-18.51,0l-58.28,33.509a6.919,6.919,0,0,0,0,11.93l99.984,57.605a21.625,21.625,0,0,0,21.8,0l55.7-32.006A7.554,7.554,0,0,0-797.025,3708.027Z" transform="translate(-481.803 -334.704)" fill="url(#i)"/><g transform="translate(-1428.099 3306.834)"><g transform="translate(0)"><path d="M-911.3,3694.208c0-8.906,7.225-20.3,16.137-25.437h0c8.913-5.143,18.926,4.678,18.926,13.585v.2l-.014,0c0,3-3.392,7-9.347,10.438-8.558,4.938-19.154,6.831-23.667,4.227a3.664,3.664,0,0,1-2-2.828l-.035.012Z" transform="translate(913.961 -3651.169)" fill="url(#k)"/><ellipse cx="11.555" cy="11.548" rx="11.555" ry="11.548" transform="translate(13.127)" fill="url(#k)"/><ellipse cx="18.574" cy="7.806" rx="18.574" ry="7.806" transform="matrix(0.926, -0.377, 0.377, 0.926, 0, 37.069)" fill="url(#k)"/></g><g transform="translate(30.019 4.606)"><g transform="translate(0 36.071)"><path d="M-850.669,3753.035l52.811-30.473c1.708-.986,1.708-2.584,0-3.569h0a6.838,6.838,0,0,0-6.185,0l-52.812,30.474a2.147,2.147,0,0,0-1.28,1.83,2.2,2.2,0,0,0,1.28,1.739h0A6.836,6.836,0,0,0-850.669,3753.035Z" transform="translate(858.135 -3716.554)" fill="url(#az)"/><path d="M-858.132,3749.828v1.783l61.536-30.849.021-1.368L-801,3718.9Z" transform="translate(858.134 -3716.869)" fill="url(#ba)"/><path d="M-850.669,3749.734l52.811-30.474c1.708-.986,1.708-2.583,0-3.57h0a6.84,6.84,0,0,0-6.185,0l-52.812,30.474c-1.708.985-1.708,2.584,0,3.569h0A6.839,6.839,0,0,0-850.669,3749.734Z" transform="translate(858.135 -3714.952)" fill="url(#bb)"/></g><path d="M-797.352,3682.961l-53.265,30.926v-37.661a2.938,2.938,0,0,1,1.471-2.545l49.581-28.61a1.578,1.578,0,0,1,2.367,1.372Z" transform="translate(854.486 -3644.856)" opacity="0.5" fill="url(#bc)"/><g transform="translate(22.815 20.157)"><path d="M-812.721,3704.969l.938-1.5,1.515.683,10.564-17.828,3.7-2.3-.153,3.88-11.405,17.447,1.516.676-.932,1.5-2.112-.938-3.041,4.884-1.516-.678,3.04-4.881Z" transform="translate(813.728 -3684.027)" fill="url(#bd)"/><path d="M-810.1,3699.991l8.189,4.364,2.445,1.228,1.507-2.42.939.414-2.1,3.368,3.061,1.366-1.505,2.417-3.059-1.363-2.094,3.365-.939-.42,1.507-2.418-2.377-.891,0,0-9.1-3.356-.169-3.693Z" transform="translate(813.801 -3691.776)" fill="url(#be)"/></g></g><g transform="translate(79.111 44.541)"><path d="M-757.57,3782.926c0-8.907,7.225-20.3,16.137-25.438h0c8.912-5.142,18.926,4.679,18.926,13.586v.2l-.014,0c0,3-3.391,7-9.347,10.438-8.558,4.938-19.154,6.83-23.666,4.227a3.662,3.662,0,0,1-2-2.828l-.034.011Z" transform="translate(760.23 -3738.773)" fill="url(#k)"/><ellipse cx="11.555" cy="11.548" rx="11.555" ry="11.548" transform="translate(6.442)" fill="url(#k)"/><ellipse cx="18.574" cy="7.806" rx="18.574" ry="7.806" transform="matrix(0.926, -0.377, 0.377, 0.926, 0, 38.183)" fill="url(#k)"/></g></g><path d="M-957.025,3805.519l-100.69-58.017a18.365,18.365,0,0,0-18.51,0l-58.28,33.509a6.92,6.92,0,0,0,0,11.93l99.984,57.606a21.63,21.63,0,0,0,21.8,0l55.7-32.007A7.553,7.553,0,0,0-957.025,3805.519Z" transform="translate(-404.14 -382.026)" fill="url(#bi)"/><path d="M-1137.87,3818.957v3.869l2.342-1.924Z" transform="translate(-391.6 -414.658)" fill="#31294f"/><path d="M-780.054,3867.924v4.052l-.946-1.44Z" transform="translate(-577.386 -441.692)" fill="#2a2047"/><path d="M-957.025,3799.027l-100.69-58.016a18.365,18.365,0,0,0-18.51,0l-58.28,33.51a6.919,6.919,0,0,0,0,11.93l99.984,57.605a21.625,21.625,0,0,0,21.8,0l55.7-32A7.554,7.554,0,0,0-957.025,3799.027Z" transform="translate(-404.14 -378.874)" fill="url(#i)"/><g transform="translate(-1510.436 3353.663)"><g transform="translate(0)"><path d="M-1071.3,3785.208c0-8.906,7.225-20.3,16.137-25.437h0c8.913-5.142,18.926,4.678,18.926,13.585v.2l-.014,0c0,3-3.392,7-9.347,10.438-8.558,4.938-19.154,6.831-23.667,4.227a3.664,3.664,0,0,1-2-2.828l-.034.012Z" transform="translate(1073.961 -3742.169)" fill="url(#k)"/><ellipse cx="11.555" cy="11.548" rx="11.555" ry="11.548" transform="translate(13.127)" fill="url(#k)"/><ellipse cx="18.574" cy="7.806" rx="18.574" ry="7.806" transform="matrix(0.926, -0.377, 0.377, 0.926, 0, 37.069)" fill="url(#k)"/></g><g transform="translate(30.019 4.606)"><g transform="translate(0 36.071)"><path d="M-1010.669,3844.035l52.811-30.473c1.708-.986,1.708-2.584,0-3.569h0a6.837,6.837,0,0,0-6.185,0l-52.812,30.474a2.147,2.147,0,0,0-1.28,1.829,2.2,2.2,0,0,0,1.28,1.74h0A6.839,6.839,0,0,0-1010.669,3844.035Z" transform="translate(1018.135 -3807.554)" fill="url(#bn)"/><path d="M-1018.132,3840.827v1.783l61.536-30.849.021-1.368L-961,3809.9Z" transform="translate(1018.134 -3807.869)" fill="url(#bo)"/><path d="M-1010.669,3840.734l52.811-30.474c1.708-.986,1.708-2.583,0-3.57h0a6.839,6.839,0,0,0-6.185,0l-52.811,30.474c-1.708.985-1.708,2.584,0,3.569h0A6.842,6.842,0,0,0-1010.669,3840.734Z" transform="translate(1018.135 -3805.951)" fill="url(#bp)"/></g><path d="M-957.352,3773.961l-53.265,30.926v-37.661a2.94,2.94,0,0,1,1.471-2.546l49.581-28.609a1.578,1.578,0,0,1,2.367,1.372Z" transform="translate(1014.486 -3735.856)" opacity="0.5" fill="url(#bq)"/><g transform="translate(22.815 20.157)"><path d="M-972.721,3795.969l.938-1.5,1.515.683,10.564-17.827,3.7-2.3-.153,3.88-11.405,17.448,1.516.676-.932,1.5-2.112-.938-3.041,4.884-1.516-.677,3.04-4.881Z" transform="translate(973.728 -3775.027)" fill="url(#br)"/><path d="M-970.1,3790.99l8.189,4.365,2.445,1.228,1.507-2.42.939.414-2.1,3.368,3.061,1.366-1.506,2.417-3.059-1.364-2.094,3.366-.939-.42,1.507-2.418-2.377-.891,0,0-9.1-3.356-.169-3.693Z" transform="translate(973.801 -3782.775)" fill="url(#bs)"/></g></g><g transform="translate(79.111 44.541)"><path d="M-917.57,3873.926c0-8.907,7.225-20.295,16.137-25.438h0c8.912-5.142,18.926,4.679,18.926,13.586v.2l-.014,0c0,3-3.391,7-9.347,10.437-8.558,4.938-19.154,6.831-23.666,4.228a3.665,3.665,0,0,1-2-2.829l-.035.012Z" transform="translate(920.23 -3829.773)" fill="url(#k)"/><ellipse cx="11.555" cy="11.548" rx="11.555" ry="11.548" transform="translate(6.442)" fill="url(#k)"/><ellipse cx="18.574" cy="7.806" rx="18.574" ry="7.806" transform="matrix(0.926, -0.377, 0.377, 0.926, 0, 38.183)" fill="url(#bv)"/></g></g><path d="M-1291.776,3596.609a3.826,3.826,0,0,0-2.206-1.174,6.555,6.555,0,0,0-.718-.107l.308-5.007-9.6-5.542,10.651-6.17,9.135,5.275c-1.1.654-1.465,1.653-.763,2.529a2.779,2.779,0,0,0,.783.648,6.2,6.2,0,0,0,4.422.455,3.39,3.39,0,0,0,2.032-1.274,1.4,1.4,0,0,0-.122-1.73c-.911-1.131-3.242-1.627-5.2-1.1-.166.045-.314.1-.464.159l-9.2-5.313,23.969-13.725,12.245,7.071a1.528,1.528,0,0,0-.441,2.305,2.762,2.762,0,0,0,.782.648,6.194,6.194,0,0,0,4.422.455,3.389,3.389,0,0,0,2.031-1.274,1.4,1.4,0,0,0-.122-1.73,3.823,3.823,0,0,0-2.206-1.173,6.559,6.559,0,0,0-3,.07,4.8,4.8,0,0,0-.872.333l-12.226-7.06,9.758-5.729,9.6,5.541,8.739-.1a2.271,2.271,0,0,0,1.064,1.139,5.633,5.633,0,0,0,2.771.662,5.636,5.636,0,0,0,2.772-.662,1.947,1.947,0,0,0,1.147-1.6,1.947,1.947,0,0,0-1.147-1.6,5.631,5.631,0,0,0-2.772-.662,5.627,5.627,0,0,0-2.771.662,1.963,1.963,0,0,0-1.141,1.56l-8.309.1-9.334-5.389,12.1-6.989c4.873-2.813,4.873-7.39,0-10.2l-12.529-7.234,9.177-5.3,8.281.17a1.554,1.554,0,0,0,.351.814,2.778,2.778,0,0,0,.785.652,4.882,4.882,0,0,0,1.421.522,6.559,6.559,0,0,0,3-.071,3.39,3.39,0,0,0,2.033-1.274,1.406,1.406,0,0,0-.123-1.731h0a3.82,3.82,0,0,0-2.206-1.174,6.557,6.557,0,0,0-3,.071,3.391,3.391,0,0,0-2.033,1.274,1.57,1.57,0,0,0-.186.414l-8.67-.178-9.445,5.454-12.094-6.65,8.974-5.182a6.211,6.211,0,0,0,4.385.438,3.392,3.392,0,0,0,2.033-1.274,1.406,1.406,0,0,0-.123-1.731,3.82,3.82,0,0,0-2.206-1.173,6.56,6.56,0,0,0-3,.071c-1.96.524-2.818,1.872-1.91,3.005a2.365,2.365,0,0,0,.27.27l-9.042,5.221-22.045-13.244,12.08-6.975a6.4,6.4,0,0,0,4,.249,3.393,3.393,0,0,0,2.034-1.274,1.407,1.407,0,0,0-.123-1.731,3.823,3.823,0,0,0-2.206-1.173,6.559,6.559,0,0,0-3,.071,3.393,3.393,0,0,0-2.033,1.274,1.4,1.4,0,0,0,.122,1.73,2.641,2.641,0,0,0,.574.505l-12.07,6.969-10.24-5.729,9.442-5.452-.175-5.046a5.212,5.212,0,0,0,1.972-.614,1.945,1.945,0,0,0,1.147-1.6,1.943,1.943,0,0,0-1.147-1.6,5.624,5.624,0,0,0-2.771-.662,5.624,5.624,0,0,0-2.771.662,1.944,1.944,0,0,0-1.147,1.6,1.947,1.947,0,0,0,1.147,1.6,5.6,5.6,0,0,0,2.7.658l.166,4.8-9.18,5.3-12.257-7.077c-4.873-2.813-12.8-2.813-17.673,0l-12.068,6.968-9.023-5.21.294-4.781a6.3,6.3,0,0,0,1.409-.2c1.96-.524,2.818-1.871,1.911-3a3.833,3.833,0,0,0-2.207-1.174,6.579,6.579,0,0,0-3,.071h0a3.392,3.392,0,0,0-2.032,1.274,1.4,1.4,0,0,0,.123,1.73,2.773,2.773,0,0,0,.785.652,4.874,4.874,0,0,0,1.421.522,6.265,6.265,0,0,0,.718.108l-.308,5.006,9.291,5.364-11.613,6.17-8.826-5.1c1.1-.653,1.466-1.654.763-2.53a3.823,3.823,0,0,0-2.206-1.173,6.574,6.574,0,0,0-3,.07,3.392,3.392,0,0,0-2.032,1.274,1.4,1.4,0,0,0,.123,1.731,2.757,2.757,0,0,0,.783.647,6.2,6.2,0,0,0,4.421.456c.166-.045.313-.1.464-.159l8.893,5.135-20.6,13.245-11.937-6.893a1.527,1.527,0,0,0,.441-2.305c-.908-1.13-3.242-1.626-5.2-1.1a3.388,3.388,0,0,0-2.031,1.273,1.4,1.4,0,0,0,.122,1.731,2.774,2.774,0,0,0,.785.651,4.88,4.88,0,0,0,1.421.522,6.554,6.554,0,0,0,3-.07,4.788,4.788,0,0,0,.873-.332l11.917,6.881-12.163,6.21-9.288-5.363-8.739.1a2.27,2.27,0,0,0-1.064-1.138,5.625,5.625,0,0,0-2.771-.663,5.627,5.627,0,0,0-2.772.663,1.946,1.946,0,0,0-1.148,1.6,1.947,1.947,0,0,0,1.148,1.6,5.635,5.635,0,0,0,2.772.663,5.633,5.633,0,0,0,2.771-.663,1.963,1.963,0,0,0,1.141-1.56l8.309-.1,9.026,5.211-12.718,7.344c-4.872,2.813-4.872,7.391,0,10.2l12.222,7.057-9.177,5.3-8.28-.17a1.551,1.551,0,0,0-.351-.813,3.823,3.823,0,0,0-2.207-1.174,6.575,6.575,0,0,0-3,.071,3.388,3.388,0,0,0-2.033,1.273,1.406,1.406,0,0,0,.123,1.732,2.786,2.786,0,0,0,.785.651,4.889,4.889,0,0,0,1.421.522,6.573,6.573,0,0,0,3-.071,3.391,3.391,0,0,0,2.033-1.274,1.57,1.57,0,0,0,.187-.414l8.67.178,9.445-5.454,10.651,6.17-8.981,5.186a6.2,6.2,0,0,0-4.38-.441c-1.96.525-2.817,1.873-1.91,3a2.766,2.766,0,0,0,.786.651,4.858,4.858,0,0,0,1.421.523,6.562,6.562,0,0,0,3-.071c1.961-.524,2.818-1.872,1.911-3a2.363,2.363,0,0,0-.275-.268l9.047-5.224,22.526,12.763-12.092,6.982a6.36,6.36,0,0,0-3.993-.255c-1.96.524-2.817,1.872-1.91,3a2.77,2.77,0,0,0,.786.651,4.859,4.859,0,0,0,1.42.522,6.557,6.557,0,0,0,3-.071,3.39,3.39,0,0,0,2.032-1.273,1.4,1.4,0,0,0-.122-1.731,2.648,2.648,0,0,0-.576-.5l12.073-6.97,11.2,6.691-9.442,5.452.175,5.046a5.209,5.209,0,0,0-1.972.615,1.944,1.944,0,0,0-1.147,1.6,1.944,1.944,0,0,0,1.147,1.6,5.627,5.627,0,0,0,2.771.662,5.626,5.626,0,0,0,2.771-.662,1.945,1.945,0,0,0,1.147-1.6,1.944,1.944,0,0,0-1.147-1.6,5.6,5.6,0,0,0-2.7-.658l-.166-4.8,9.18-5.3,12.564,7.256c4.872,2.813,12.8,2.813,17.673,0l12.683-7.324,9.331,5.388-.295,4.781a6.327,6.327,0,0,0-1.409.2,3.39,3.39,0,0,0-2.033,1.273,1.406,1.406,0,0,0,.123,1.731,2.791,2.791,0,0,0,.786.651,4.885,4.885,0,0,0,1.42.522,6.558,6.558,0,0,0,3-.071,3.389,3.389,0,0,0,2.032-1.273A1.405,1.405,0,0,0-1291.776,3596.609Zm9.083-12.745a4.814,4.814,0,0,1,3.438.354,2.147,2.147,0,0,1,.609.5,1.091,1.091,0,0,1,.1,1.346,2.638,2.638,0,0,1-1.581.991,5.1,5.1,0,0,1-2.331.055,2.961,2.961,0,0,1-1.716-.913C-1284.884,3585.32-1284.218,3584.272-1282.693,3583.864Zm28.019-12.509a5.1,5.1,0,0,1,2.33-.055,3.789,3.789,0,0,1,1.1.406,2.149,2.149,0,0,1,.611.507,1.091,1.091,0,0,1,.1,1.346,2.638,2.638,0,0,1-1.581.991,5.1,5.1,0,0,1-2.331.055,2.969,2.969,0,0,1-1.715-.912C-1256.866,3572.812-1256.2,3571.764-1254.674,3571.356Zm18.464-9.693a4.382,4.382,0,0,1,2.156.515,1.514,1.514,0,0,1,.893,1.244,1.515,1.515,0,0,1-.893,1.245,4.382,4.382,0,0,1-2.156.515c-1.629,0-3.048-.819-3.048-1.76a1.514,1.514,0,0,1,.893-1.244A4.381,4.381,0,0,1-1236.209,3561.662Zm-1.9-34.864a5.081,5.081,0,0,1,2.331-.055,3.765,3.765,0,0,1,1.105.406,2.145,2.145,0,0,1,.61.506h0a1.093,1.093,0,0,1,.095,1.346,2.634,2.634,0,0,1-1.581.99,5.1,5.1,0,0,1-2.331.055,2.97,2.97,0,0,1-1.715-.913,1.089,1.089,0,0,1-.1-1.345A2.63,2.63,0,0,1-1238.106,3526.8Zm-22.361-8.54a5.1,5.1,0,0,1,2.33-.054,3.805,3.805,0,0,1,1.1.406,2.147,2.147,0,0,1,.61.507h0a1.091,1.091,0,0,1,.1,1.345,2.631,2.631,0,0,1-1.581.991c-1.525.408-3.342.022-4.047-.857S-1261.993,3518.667-1260.467,3518.259Zm-21.519-14.591a2.638,2.638,0,0,1,1.582-.991,5.1,5.1,0,0,1,2.331-.055,3.808,3.808,0,0,1,1.105.406,2.158,2.158,0,0,1,.61.507,1.091,1.091,0,0,1,.1,1.346,2.635,2.635,0,0,1-1.58.99c-1.525.407-3.341.022-4.047-.858A1.093,1.093,0,0,1-1281.987,3503.668Zm-17.01-9.411a1.514,1.514,0,0,1,.892-1.244,4.382,4.382,0,0,1,2.156-.516,4.382,4.382,0,0,1,2.156.516,1.513,1.513,0,0,1,.893,1.244,1.515,1.515,0,0,1-.893,1.245,4.387,4.387,0,0,1-2.156.515C-1297.578,3496.018-1299,3495.2-1299,3494.258Zm-58.049,1.653a2.984,2.984,0,0,1-1.716-.913,1.091,1.091,0,0,1-.1-1.346,2.633,2.633,0,0,1,1.581-.99h0a5.1,5.1,0,0,1,2.331-.055,3.772,3.772,0,0,1,1.1.406,2.15,2.15,0,0,1,.61.507c.706.88.04,1.929-1.486,2.337A5.1,5.1,0,0,1-1357.046,3495.911Zm-12.551,12.042c-1.525.407-3.34.024-4.047-.858a1.09,1.09,0,0,1-.1-1.345,2.635,2.635,0,0,1,1.581-.99h0a5.1,5.1,0,0,1,2.33-.056,3.816,3.816,0,0,1,1.106.407,2.147,2.147,0,0,1,.61.507C-1367.406,3506.5-1368.072,3507.546-1369.6,3507.953Zm-24.652,12.027a5.093,5.093,0,0,1-2.33.055,2.969,2.969,0,0,1-1.715-.914,1.091,1.091,0,0,1-.1-1.346,2.643,2.643,0,0,1,1.581-.991c1.525-.407,3.342-.022,4.046.858S-1392.724,3519.573-1394.25,3519.98Zm-20.869,10.175c-1.629,0-3.048-.82-3.048-1.76a1.514,1.514,0,0,1,.893-1.244,4.384,4.384,0,0,1,2.156-.515,4.384,4.384,0,0,1,2.156.515,1.515,1.515,0,0,1,.892,1.244,1.516,1.516,0,0,1-.892,1.245A4.384,4.384,0,0,1-1415.119,3530.156Zm.665,34.864a5.1,5.1,0,0,1-2.331.056,2.97,2.97,0,0,1-1.715-.913h0a1.09,1.09,0,0,1-.1-1.345,2.63,2.63,0,0,1,1.581-.991,5.107,5.107,0,0,1,2.331-.055,3.783,3.783,0,0,1,1.1.406,2.141,2.141,0,0,1,.611.507,1.091,1.091,0,0,1,.1,1.345A2.637,2.637,0,0,1-1414.454,3565.02Zm20.918,8.058a5.1,5.1,0,0,1-2.331.055,2.97,2.97,0,0,1-1.716-.913c-.706-.88-.04-1.928,1.486-2.337s3.342-.022,4.047.857S-1392.01,3572.67-1393.536,3573.078Zm22,14.111a2.643,2.643,0,0,1-1.582.99,5.1,5.1,0,0,1-2.331.055,2.967,2.967,0,0,1-1.715-.914c-.705-.88-.04-1.928,1.485-2.336s3.342-.024,4.047.858A1.092,1.092,0,0,1-1371.536,3587.188Zm17.08,9.127a1.515,1.515,0,0,1,.892,1.245,1.515,1.515,0,0,1-.892,1.244,4.387,4.387,0,0,1-2.156.516c-1.628,0-3.048-.82-3.048-1.76a1.514,1.514,0,0,1,.892-1.245,4.385,4.385,0,0,1,2.156-.516A4.384,4.384,0,0,1-1354.455,3596.316Zm36.1-6.731a17.2,17.2,0,0,1-15.543,0l-67.717-39.1c-4.286-2.475-4.286-6.5,0-8.974l12.024-6.943h0l.582-.336h0l13.317-7.689h0l.582-.336h0l15.386-8.884h0l.582-.336h0l13.252-7.652h0l.583-.336h0l11.409-6.588a17.2,17.2,0,0,1,15.543,0l67.717,39.1c4.285,2.474,4.285,6.5,0,8.974Zm24.3,9.572h0a5.083,5.083,0,0,1-2.33.055,2.966,2.966,0,0,1-1.716-.912,1.091,1.091,0,0,1-.1-1.346,2.637,2.637,0,0,1,1.581-.991,5.093,5.093,0,0,1,2.33-.055,3.8,3.8,0,0,1,1.1.406,2.164,2.164,0,0,1,.611.508,1.09,1.09,0,0,1,.1,1.346A2.634,2.634,0,0,1-1294.052,3599.156Z" transform="translate(-245.34 -244.95)" fill="url(#bw)"/><path d="M-1397.858,3552.557a9.253,9.253,0,0,1-.445-2.916c-.02-3.218,1.737-6.952,4.332-8.576.109-.069.223-.129.338-.187l71.84-35.929a13.267,13.267,0,0,1,13.423,0l73.148,36.3c2.374,1.2,3.594,4.4,3.594,7.675,0,.436,0,.976,0,1.553a6.07,6.07,0,0,1-2.729,5.082c-.414.271-.807.529-1.123.735l-69.595,40.723a19.792,19.792,0,0,1-20.016,0L-1394,3556.688S-1397.12,3554.335-1397.858,3552.557Z" transform="translate(-256.423 -250.728)" fill="url(#p)"/><path d="M-1392.258,3534.421l72.477-42.254a13.359,13.359,0,0,1,13.472,0l73.16,42.652a5.042,5.042,0,0,1,0,8.689l-71.963,41.954a15.732,15.732,0,0,1-15.865,0l-71.28-41.557A5.5,5.5,0,0,1-1392.258,3534.421Z" transform="translate(-258.153 -244.093)" fill="url(#by)"/><g transform="translate(-1479.669 3102.166)"><path d="M-972.455,3224.974v-4.794c0-2.224-15.963-12.034-25.4-17.48-2.548-1.472-24.893-14.293-24.893-11.554v4.746c-7.04-2.988-12.07.368-11.542,7.835.328,14.093,23,40.27,23.966,41.379a2.339,2.339,0,0,0,.312.3c1.865,2.479,6.817,9.5,6.929,14.233.135,5.708-5.44,5.723-5.495,5.723a.576.576,0,0,0-.194.029l-10.109-5.837c-.6-.349-1.093-.142-1.093.462v12.9a2.269,2.269,0,0,0,1.093,1.724l42.555,24.569c.6.349,1.093.142,1.093-.462v-12.9a2.269,2.269,0,0,0-1.093-1.725l-10.133-5.85a2.446,2.446,0,0,0-.191-.251c-.056-.064-5.63-6.515-5.494-12.068.137-5.649,7.554-6.326,7.629-6.333l.008,0c3.916-.081,22.995-1.125,23.3-13.7C-960.685,3239.156-965.568,3230.152-972.455,3224.974Zm-59.645-20.061c0-.021,0-.041,0-.062-.448-6.171,3.614-9.01,9.359-6.742v16.774c0,6,2.115,12.732,5.633,19.091C-1023.659,3225.236-1031.937,3212.69-1032.1,3204.913Zm37.773,59.724c-.1,4.212,2.3,8.657,4.243,11.538l-15.054-8.691c1.94-.641,4.348-2.307,4.245-6.637-.094-3.987-2.783-8.989-5.134-12.624a46.579,46.579,0,0,0,8.428,6.323,29.919,29.919,0,0,0,8.394,3.4C-991.553,3258.869-994.234,3260.766-994.327,3264.637Zm30.937-20.114c0,.018,0,.038,0,.057-.158,7.305-7.834,10.347-14.249,11.614,3.25-2.36,5.187-6.536,5.187-12.275V3227.2C-966.865,3231.595-962.948,3238.965-963.39,3244.523Z" transform="translate(1034.324 -3190.763)" fill="#fff"/><g transform="translate(20.978 20.005)"><path d="M-988.742,3232.662l27.564,15.914a4.075,4.075,0,0,1,1.964,3.1v9.945c0,1.085-.88,1.457-1.964.83l-27.564-15.914a4.074,4.074,0,0,1-1.964-3.1v-9.945C-990.706,3232.407-989.827,3232.036-988.742,3232.662Z" transform="translate(990.706 -3232.357)" fill="url(#bz)"/></g></g><g transform="translate(-1603.468 3271.387) scale(1 0.707)"><path d="M23.24,45.716A23.3,23.3,0,0,1,6.8,39.028a22.621,22.621,0,0,1,0-32.337,23.539,23.539,0,0,1,32.878,0,22.546,22.546,0,0,1,0,32.337A23.3,23.3,0,0,1,23.24,45.716ZM23.2,9.4a13.7,13.7,0,0,0-9.676,3.94,13.255,13.255,0,0,0-2.436,15.775c.057.093.1.178.153.262.061.108.116.206.182.313a12.473,12.473,0,0,0,2.1,2.686c.088.088.189.176.286.259l.013.011c.084.074.171.149.247.224a8.121,8.121,0,0,0,.9.737l.067.05.052.04.021.016a5.524,5.524,0,0,0,.559.4,13.242,13.242,0,0,0,2.394,1.238c.412.162.835.286,1.244.407.47.128.895.211,1.305.291a14.378,14.378,0,0,0,2.637.251,13.769,13.769,0,0,0,9.634-3.881,13.408,13.408,0,0,0,3.738-12.1,12.079,12.079,0,0,0-.3-1.281,12.223,12.223,0,0,0-1.68-3.592c-.079-.1-.15-.2-.218-.294l-.01-.014c-.075-.105-.149-.208-.232-.311l-.029-.038a8,8,0,0,0-.771-.912c-.08-.078-.161-.168-.239-.256l-.011-.013-.018-.019c-.077-.085-.156-.173-.235-.25a14.138,14.138,0,0,0-2.729-2.062L30,11.188l-.018-.011a2.5,2.5,0,0,0-.425-.231A13.847,13.847,0,0,0,23.2,9.4Z" transform="translate(16.376 16.147)" fill="#e72635"/><path d="M12.177,31.055a13.221,13.221,0,0,1-3.989-9.416,10.6,10.6,0,0,1,2.6-10.985A10.951,10.951,0,0,1,21.96,8.094a13.777,13.777,0,0,1,9.573,3.923,13.3,13.3,0,0,1,.5,18.5,17.946,17.946,0,0,0-.5-25.191,18.668,18.668,0,0,0-26.117,0,17.935,17.935,0,0,0,0,25.686,18.688,18.688,0,0,0,25.613.5A13.859,13.859,0,0,1,12.177,31.055Z" transform="translate(17.761 17.468)" fill="url(#ca)"/><path d="M16.753,34.73a14.984,14.984,0,0,1-2.771-1.9l-.5-.5-.5-.5a13.27,13.27,0,0,1,.5-18.542,13.9,13.9,0,0,1,18.853-.5l.5.5.5.5a14.751,14.751,0,0,1,2.267,3.345,13.639,13.639,0,0,1,.714,1.817,11.471,11.471,0,0,1,.294,1.28,13.366,13.366,0,0,1-3.737,12.1,14.045,14.045,0,0,1-6.55,3.593,13.152,13.152,0,0,0,1.218,9.333.041.041,0,0,0,.042.041,23.579,23.579,0,0,0,12.093-6.277,22.615,22.615,0,0,0,0-32.335A23.541,23.541,0,0,0,6.8,6.69a22.615,22.615,0,0,0,0,32.335,23.109,23.109,0,0,0,10.413,5.905A22.077,22.077,0,0,1,16.753,34.73Z" transform="translate(0 0)" fill="#009aff"/><g transform="translate(1.302 1.28)"><path d="M15.452,33.45a13.82,13.82,0,0,1-3.275-2.4,13.221,13.221,0,0,1-3.989-9.416,10.6,10.6,0,0,1,2.6-10.985A11.039,11.039,0,0,1,21.96,8.094a13.777,13.777,0,0,1,9.573,3.923,13.3,13.3,0,0,1,.5,18.5,17.946,17.946,0,0,0-.5-25.191,18.668,18.668,0,0,0-26.117,0,17.935,17.935,0,0,0,0,25.686,18.287,18.287,0,0,0,9.7,5C15.2,35.185,15.284,34.317,15.452,33.45Z" transform="translate(0)" fill="url(#cb)"/><path d="M0,3.717A18.037,18.037,0,0,0,6.13,0a13.7,13.7,0,0,1-6,3.1A1.633,1.633,0,0,0,0,3.717Z" transform="translate(24.899 31.55)" fill="url(#cc)"/></g></g></g></svg>