<svg width="100%" height="100%" viewBox="0 0 84 84" xmlns="http://www.w3.org/2000/svg"><defs><linearGradient x1="0%" y1="0%" y2="100%" id="a"><stop stop-color="#90AEF4" offset="0%"/><stop stop-color="#756CC2" offset="100%"/></linearGradient></defs><g fill="none" fill-rule="evenodd"><rect fill="url(#a)" width="84" height="84" rx="16"/><path d="M61.323 27.581L42.5 43.663 23.305 27.968c.745-.582 1.49-.969 2.422-.969h33.546c.745 0 1.49.194 2.05.581zM43.245 46.406s19.382-16.275 19.382-16.468c.187.58.373 1.356.373 1.937v21.25C63 55.256 61.323 57 59.273 57H25.727C23.677 57 22 55.256 22 53.125v-21.25c0-.581 0-.969.186-1.356l19.941 15.887c.373.388.746.194 1.118 0z" fill="#FFF"/></g></svg>
