<svg viewBox="0 0 84 84" xmlns="http://www.w3.org/2000/svg" xmlns:xlink="http://www.w3.org/1999/xlink"><linearGradient id="a" x1="0%" y1="0%" y2="100%"><stop offset="0" stop-color="#70d9f8"/><stop offset="1" stop-color="#5e9ff4"/></linearGradient><g fill="none" fill-rule="evenodd"><rect fill="url(#a)" height="84" rx="16" width="84"/><path d="m15 22h14v14h-14zm20 0h14v14h-14zm20 0h14v14h-14zm-40 16h9v2h-9zm20 0h12v2h-12zm20 0h14v2h-14zm-40 6h14v14h-14zm20 0h14v14h-14zm20 0h14v14h-14zm-40 16h12v2h-12zm20 0h14v2h-14zm20 0h12v2h-12z" fill="#fff"/></g></svg>