<svg viewBox="0 0 84 84" xmlns="http://www.w3.org/2000/svg" xmlns:xlink="http://www.w3.org/1999/xlink"><linearGradient id="a" x1="0%" y1="0%" y2="100%"><stop offset="0" stop-color="#fde191"/><stop offset="1" stop-color="#fca04f"/></linearGradient><g fill="none" fill-rule="evenodd"><rect fill="url(#a)" height="84" rx="16" width="84"/><path d="m64.702 26.223a1.682 1.682 0 0 0 -1.369-.693h-6.88c.029-.928.048-1.885.048-2.884a.657.657 0 0 0 -.667-.646h-26.668a.657.657 0 0 0 -.666.646c0 .999.018 1.956.049 2.884h-6.882c-.546 0-1.058.26-1.37.693-.31.435-.383.99-.192 1.485l5.34 13.845c.173.448.542.8 1.01.96l6.488 2.171c1.962 3.55 4.388 6.183 6.89 8.78v3.694c-.887.604-2.003 1.755-3.929 3.596l-.406 1.994-2.5 1.506c-.369.262-.501 2.746-.501 2.746h20.005s-.148-2.464-.523-2.746l-2.388-1.508-.391-1.992c-2.016-1.771-3.16-2.938-4.034-3.575v-3.717c2.538-2.584 4.994-5.167 6.967-8.778l6.41-2.172c.468-.158.839-.51 1.012-.96l5.34-13.844a1.57 1.57 0 0 0 -.193-1.485zm-36.408 13.492-4.226-10.957h4.654c.378 4.917 1.22 8.76 2.38 11.909zm28.411 0-2.76.936c1.139-3.143 1.966-6.985 2.337-11.894h4.649z" fill="#fff"/></g></svg>