<?xml version="1.0" encoding="UTF-8" standalone="no"?>
<!-- Created with Inkscape (http://www.inkscape.org/) -->

<svg
   xmlns:dc="http://purl.org/dc/elements/1.1/"
   xmlns:cc="http://creativecommons.org/ns#"
   xmlns:rdf="http://www.w3.org/1999/02/22-rdf-syntax-ns#"
   xmlns:svg="http://www.w3.org/2000/svg"
   xmlns="http://www.w3.org/2000/svg"
   version="1.1"
   width="640"
   height="130"
   id="svg4588">
  <defs
     id="defs4590">
    <clipPath
       id="clipPath4171">
      <path
         d="m 385.513,728.22 209.762,0 0,65.48 -209.762,0 0,-65.48 z"
         id="path4173" />
    </clipPath>
  </defs>
  <metadata
     id="metadata4593">
    <rdf:RDF>
      <cc:Work
         rdf:about="">
        <dc:format>image/svg+xml</dc:format>
        <dc:type
           rdf:resource="http://purl.org/dc/dcmitype/StillImage" />
        <dc:title></dc:title>
      </cc:Work>
    </rdf:RDF>
  </metadata>
  <g
     transform="translate(0,-638)"
     id="layer1">
    <g
       transform="matrix(3.75,0,0,-3.75,-1447.8511,3500.9182)"
       id="g4167">
      <g
         clip-path="url(#clipPath4171)"
         id="g4169">
        <g
           transform="translate(387.42281,746.7513)"
           id="g4175">
          <path
             d="M 0,0 C 0.259,-0.121 7.55,-3.52 7.809,-3.642 7.93,-3.381 11.33,3.909 11.451,4.168 11.192,4.29 3.901,7.689 3.642,7.81 3.52,7.551 0.121,0.26 0,0"
             id="path4177"
             style="fill:#ffffff;fill-opacity:1;fill-rule:evenodd;stroke:none" />
        </g>
        <g
           transform="translate(397.8046,754.7357)"
           id="g4179">
          <path
             d="m 0,0 c 0.171,-0.219 3.153,-4.036 3.324,-4.254 0.219,0.17 4.035,3.152 4.254,3.323 C 7.407,-0.712 4.425,3.105 4.254,3.324 4.035,3.152 0.219,0.171 0,0"
             id="path4181"
             style="fill:#ffffff;fill-opacity:1;fill-rule:nonzero;stroke:none" />
        </g>
        <g
           transform="translate(395.4799,758.39281)"
           id="g4183">
          <path
             d="M 0,0 C 0.259,-0.045 2.855,-0.504 3.113,-0.549 3.159,-0.29 3.617,2.306 3.663,2.565 3.404,2.61 0.808,3.068 0.549,3.114 0.503,2.855 0.045,0.259 0,0"
             id="path4185"
             style="fill:#ffffff;fill-opacity:1;fill-rule:nonzero;stroke:none" />
        </g>
        <g
           transform="translate(429.9209,738.5574)"
           id="g4187">
          <path
             d="m 0,0 c -0.03,-0.052 -0.086,-0.081 -0.145,-0.075 -0.059,0.006 -0.109,0.045 -0.128,0.101 -0.406,1.176 -1.298,1.773 -2.652,1.773 -1.204,0 -2.134,-0.558 -2.764,-1.66 -0.033,-0.058 -0.102,-0.087 -0.167,-0.071 -0.066,0.017 -0.112,0.075 -0.114,0.143 0,0 -0.03,1.13 -0.036,1.369 l -1.675,0 c 0.006,-0.281 0.056,-2.703 0.056,-2.703 l 0,-7.054 1.695,0 0,5.756 c 0,1.423 0.604,3.085 2.306,3.085 1.716,0 1.947,-1.407 1.947,-2.785 l 0,-6.056 1.695,0 0,5.817 c 0,1.922 0.819,3.024 2.247,3.024 1.761,0 1.986,-1.467 1.986,-2.745 l 0,-6.096 1.715,0 0,6.216 c 0,2.566 -0.941,3.76 -2.963,3.76 C 1.696,1.799 0.686,1.194 0,0"
             id="path4189"
             style="fill:#ffffff;fill-opacity:1;fill-rule:nonzero;stroke:none" />
        </g>
        <g
           transform="translate(440.0463,736.07471)"
           id="g4191">
          <path
             d="M 0,0 C -0.028,0.031 -0.043,0.073 -0.039,0.115 0.14,2.193 0.982,3.247 2.466,3.247 3.075,3.247 3.578,3.048 3.96,2.657 4.487,2.117 4.76,1.208 4.732,0.098 4.73,0.017 4.664,-0.048 4.582,-0.048 l -4.471,0 C 0.068,-0.048 0.028,-0.031 0,0 m -1.735,-1.036 c 0,-3.282 1.355,-4.878 4.141,-4.878 2.192,0 3.487,0.986 3.867,2.917 -0.25,0.037 -1.381,0.204 -1.596,0.235 -0.189,-1.419 -0.928,-2.157 -2.231,-2.157 -1.69,0 -2.462,1.16 -2.506,3.761 l 0,0.002 c 0,0.04 0.016,0.078 0.044,0.107 0.028,0.028 0.066,0.045 0.107,0.045 l 6.297,0 0,0.043 c 0,2.064 -0.4,3.474 -1.221,4.305 -0.625,0.631 -1.488,0.938 -2.641,0.938 -2.827,0 -4.261,-1.789 -4.261,-5.318"
             id="path4193"
             style="fill:#ffffff;fill-opacity:1;fill-rule:nonzero;stroke:none" />
        </g>
        <g
           transform="translate(453.78081,737.4494)"
           id="g4195">
          <path
             d="M 0,0 0,0.004 0,0 z m -5.23,0.264 c 0,-1.626 1.034,-2.076 3.015,-2.792 1.338,-0.492 2.395,-0.88 2.395,-2.058 0,-1.033 -0.791,-1.728 -1.968,-1.728 -1.171,0 -1.844,0.733 -1.939,2.036 -0.232,-0.035 -1.458,-0.221 -1.686,-0.256 0.129,-1.823 1.315,-2.755 3.545,-2.755 1.125,0 3.742,0.289 3.742,2.963 0,1.697 -1.14,2.107 -2.865,2.729 l -0.449,0.163 c -1.319,0.487 -2.135,0.974 -2.135,1.898 0,1.027 0.898,1.488 1.787,1.488 0.585,0 1.035,-0.159 1.337,-0.471 C -0.162,1.182 -0.019,0.74 -0.007,0.178 0.246,0.214 1.402,0.379 1.635,0.412 1.455,2.108 0.408,2.907 -1.668,2.907 -3.39,2.907 -5.23,2.213 -5.23,0.264"
             id="path4197"
             style="fill:#ffffff;fill-opacity:1;fill-rule:nonzero;stroke:none" />
        </g>
        <g
           transform="translate(463.01179,737.4494)"
           id="g4199">
          <path
             d="M 0,0 0,0.004 0,0 z m -5.23,0.264 c 0,-1.626 1.034,-2.076 3.015,-2.792 1.339,-0.492 2.394,-0.88 2.394,-2.058 0,-1.033 -0.79,-1.728 -1.967,-1.728 -1.17,0 -1.843,0.733 -1.939,2.036 -0.231,-0.035 -1.459,-0.221 -1.686,-0.256 0.129,-1.823 1.317,-2.755 3.546,-2.755 1.125,0 3.742,0.289 3.742,2.963 0,1.697 -1.14,2.107 -2.865,2.729 l -0.45,0.163 c -1.319,0.487 -2.134,0.974 -2.134,1.898 0,1.027 0.897,1.488 1.786,1.488 0.585,0 1.035,-0.159 1.338,-0.471 C -0.162,1.182 -0.019,0.74 -0.007,0.178 0.246,0.214 1.403,0.379 1.635,0.412 1.456,2.108 0.408,2.907 -1.668,2.907 -3.39,2.907 -5.23,2.213 -5.23,0.264"
             id="path4201"
             style="fill:#ffffff;fill-opacity:1;fill-rule:nonzero;stroke:none" />
        </g>
        <g
           transform="translate(468.5222,736.07471)"
           id="g4203">
          <path
             d="M 0,0 C -0.029,0.031 -0.043,0.073 -0.039,0.115 0.14,2.193 0.983,3.247 2.466,3.247 3.076,3.247 3.578,3.048 3.96,2.657 4.486,2.117 4.761,1.209 4.733,0.098 4.731,0.017 4.664,-0.048 4.582,-0.048 l -4.471,0 C 0.069,-0.048 0.029,-0.031 0,0 m -1.734,-1.036 c 0,-3.282 1.354,-4.878 4.14,-4.878 2.192,0 3.487,0.986 3.867,2.917 -0.25,0.037 -1.381,0.204 -1.596,0.235 -0.189,-1.419 -0.928,-2.157 -2.231,-2.157 -1.69,0 -2.463,1.16 -2.505,3.761 l 0,0.002 c 0,0.04 0.015,0.078 0.043,0.107 0.028,0.028 0.067,0.045 0.107,0.045 l 6.297,0 c 0,0.014 0.001,0.028 0.001,0.041 0,2.066 -0.401,3.476 -1.223,4.307 -0.624,0.631 -1.487,0.938 -2.64,0.938 -2.827,0 -4.26,-1.789 -4.26,-5.318"
             id="path4205"
             style="fill:#ffffff;fill-opacity:1;fill-rule:nonzero;stroke:none" />
        </g>
        <g
           transform="translate(496.5244,733.1237)"
           id="g4207">
          <path
             d="m 0,0 c 0,1.517 1.186,2.286 3.524,2.286 l 0.698,0 c 0.08,0 0.147,-0.064 0.15,-0.145 L 4.393,1.602 c 0,-1.536 -0.254,-3.57 -2.446,-3.57 C 0.782,-1.968 0,-1.177 0,0 M -1.091,4.839 C -0.846,4.806 0.351,4.647 0.57,4.618 c 0.115,1.089 0.734,1.66 1.876,1.66 1.707,0 1.927,-1.307 1.927,-2.446 l 0,-0.519 C 4.373,3.23 4.305,3.161 4.222,3.161 l -0.519,0 c -2.512,0 -5.398,-0.372 -5.398,-3.281 0,-1.754 1.143,-2.844 2.982,-2.844 1.307,0 2.291,0.527 2.927,1.565 0.034,0.056 0.099,0.086 0.164,0.071 0.063,-0.016 0.109,-0.068 0.114,-0.133 l 0.069,-0.96 c 0,0 0.013,-0.188 0.022,-0.323 l 1.593,0 C 6.081,-1.752 6.027,-0.615 6.027,0.578 l 0,3.194 c 0,2.491 -1.004,3.461 -3.581,3.461 -1.503,0 -3.307,-0.43 -3.537,-2.394"
             id="path4209"
             style="fill:#ffffff;fill-opacity:1;fill-rule:nonzero;stroke:none" />
        </g>
        <g
           transform="translate(507.3689,738.7122)"
           id="g4211">
          <path
             d="m 0,0 c -0.035,-0.057 -0.104,-0.084 -0.167,-0.066 -0.066,0.018 -0.111,0.076 -0.111,0.144 0,0 -0.015,1.107 -0.019,1.347 l -1.692,0 c 0.007,-0.271 0.055,-2.024 0.055,-2.024 l 0,-7.733 1.696,0 0,5.358 c 0,2.214 0.89,3.484 2.446,3.484 1.87,0 2.027,-1.505 2.027,-3.045 l 0,-5.797 1.694,0 0,6.515 C 5.929,0.481 4.905,1.644 2.886,1.644 1.654,1.644 0.683,1.092 0,0"
             id="path4213"
             style="fill:#ffffff;fill-opacity:1;fill-rule:nonzero;stroke:none" />
        </g>
        <g
           transform="translate(521.9366,740.1373)"
           id="g4215">
          <path
             d="m 0,0 c -0.086,-0.1 -3.484,-4.059 -3.63,-4.228 0.131,-0.184 3.871,-5.408 3.958,-5.529 l 2.058,0 c -0.328,0.441 -4.093,5.507 -4.093,5.507 -0.02,0.027 -0.03,0.058 -0.03,0.09 0,0.036 0.013,0.072 0.04,0.101 0,0 3.261,3.613 3.664,4.059 L 0,0 z m -5.706,-9.757 1.714,0 0,14.129 -1.714,0 0,-14.129 z"
             id="path4217"
             style="fill:#ffffff;fill-opacity:1;fill-rule:nonzero;stroke:none" />
        </g>
        <g
           transform="translate(527.3278,741.60629)"
           id="g4219">
          <path
             d="m 0,0 0,-1.318 c 0,-0.083 -0.068,-0.151 -0.151,-0.151 l -1.586,0 0,-1.076 1.586,0 C -0.068,-2.545 0,-2.612 0,-2.695 l 0,-8.531 1.694,0 0,8.531 c 0,0.083 0.068,0.15 0.151,0.15 l 1.884,0 0,1.076 -1.884,0 c -0.083,0 -0.151,0.068 -0.151,0.151 l 0,1.297 c 0,1.154 0.273,1.868 1.629,1.868 0,0 0.335,-0.01 0.527,-0.016 l 0,1.12 C 3.625,2.962 2.523,3.023 2.523,3.023 0.754,3.023 0,2.118 0,0"
             id="path4221"
             style="fill:#ffffff;fill-opacity:1;fill-rule:nonzero;stroke:none" />
        </g>
        <g
           transform="translate(539.2637,740.1373)"
           id="g4223">
          <path
             d="m 0,0 0,-5.538 c 0,-2.764 -1.309,-3.344 -2.406,-3.344 -1.889,0 -2.048,1.495 -2.048,3.025 l 0,5.857 -1.714,0 0,-6.635 c 0,-2.249 1.015,-3.342 3.103,-3.342 1.157,0 2.108,0.548 2.828,1.629 0.036,0.055 0.103,0.08 0.167,0.061 0.063,-0.018 0.107,-0.074 0.11,-0.14 0,0 0.029,-1.093 0.036,-1.33 l 1.694,0 C 1.762,-9.474 1.693,-7.014 1.693,-7.014 L 1.693,0 0,0 z"
             id="path4225"
             style="fill:#ffffff;fill-opacity:1;fill-rule:nonzero;stroke:none" />
        </g>
        <g
           transform="translate(545.851,738.6613)"
           id="g4227">
          <path
             d="m 0,0 c -0.032,-0.059 -0.101,-0.089 -0.167,-0.074 -0.066,0.017 -0.113,0.073 -0.115,0.141 0,0 -0.046,1.174 -0.055,1.412 l -1.638,0 c 0.008,-0.281 0.057,-2.344 0.057,-2.344 0.01,-0.37 0.016,-1.846 0.016,-3.438 0,-1.514 -0.006,-3.108 -0.015,-3.978 l 1.694,0 0,5.379 c 0,1.977 0.954,3.067 2.687,3.067 0,0 0.151,-0.014 0.282,-0.026 C 2.776,0.356 2.92,1.398 2.952,1.624 2.837,1.64 2.683,1.659 2.683,1.659 1.529,1.659 0.6,1.086 0,0"
             id="path4229"
             style="fill:#ffffff;fill-opacity:1;fill-rule:nonzero;stroke:none" />
        </g>
        <g
           transform="translate(483.2412,741.60629)"
           id="g4231">
          <path
             d="m 0,0 0,-1.318 c 0,-0.083 -0.067,-0.151 -0.151,-0.151 l -1.585,0 0,-1.076 1.585,0 C -0.067,-2.545 0,-2.612 0,-2.695 l 0,-8.531 1.695,0 0,8.531 c 0,0.083 0.067,0.15 0.151,0.15 l 1.885,0 0,1.076 -1.885,0 c -0.084,0 -0.151,0.068 -0.151,0.151 l 0,1.297 c 0,1.154 0.272,1.868 1.628,1.868 0,0 0.336,-0.01 0.528,-0.016 l 0,1.12 C 3.625,2.962 2.525,3.023 2.525,3.023 0.755,3.023 0,2.118 0,0"
             id="path4233"
             style="fill:#ffffff;fill-opacity:1;fill-rule:nonzero;stroke:none" />
        </g>
        <g
           transform="translate(490.9429,738.6613)"
           id="g4235">
          <path
             d="m 0,0 c -0.034,-0.059 -0.102,-0.089 -0.167,-0.074 -0.066,0.017 -0.114,0.073 -0.116,0.141 0,0 -0.046,1.174 -0.056,1.412 l -1.635,0 c 0.005,-0.281 0.055,-2.344 0.055,-2.344 0.011,-0.37 0.015,-1.846 0.015,-3.438 0,-1.514 -0.004,-3.108 -0.014,-3.978 l 1.695,0 0,5.379 c 0,1.977 0.954,3.067 2.686,3.067 0,0 0.152,-0.014 0.282,-0.026 C 2.776,0.356 2.92,1.398 2.951,1.624 2.835,1.639 2.682,1.659 2.682,1.659 1.528,1.659 0.6,1.086 0,0"
             id="path4237"
             style="fill:#ffffff;fill-opacity:1;fill-rule:nonzero;stroke:none" />
        </g>
        <g
           transform="translate(551.65199,742.04539)"
           id="g4239">
          <path
             d="m 0,0 0,-1.757 c 0,-0.083 -0.068,-0.15 -0.151,-0.15 l -1.099,0 0,-1.096 1.099,0 C -0.068,-3.003 0,-3.071 0,-3.154 l 0,-6.289 c 0,-1.724 0.615,-2.306 2.444,-2.306 0.579,0 1.007,0.029 1.387,0.084 l 0,1.138 c -0.222,-0.021 -0.708,-0.065 -0.708,-0.065 -1.314,0 -1.409,0.644 -1.409,1.707 l 0,5.731 c 0,0.083 0.067,0.151 0.151,0.151 l 1.906,0 0,1.096 -1.906,0 c -0.084,0 -0.151,0.067 -0.151,0.15 l 0,2.471 C 1.397,0.581 0.15,0.063 0,0"
             id="path4241"
             style="fill:#ffffff;fill-opacity:1;fill-rule:nonzero;stroke:none" />
        </g>
        <path
           d="m 411.323,730.229 -14.431,0 0,14.431 14.431,0 0,-14.431 z"
           id="path4243"
           style="fill:#db021d;fill-opacity:1;fill-rule:evenodd;stroke:none" />
        <g
           transform="translate(395.3054,742.91)"
           id="g4245">
          <path
             d="M 0,0 -8.083,3.769 -4.314,11.852 3.768,8.082 0,0 z"
             id="path4247"
             style="fill:#005ca9;fill-opacity:1;fill-rule:evenodd;stroke:none" />
        </g>
        <g
           transform="translate(401.10229,750.26981)"
           id="g4249">
          <path
             d="M 0,0 -3.509,4.492 0.983,8.001 4.492,3.509 0,0 z"
             id="path4251"
             style="fill:#f9b000;fill-opacity:1;fill-rule:nonzero;stroke:none" />
        </g>
        <g
           transform="translate(398.7157,757.66879)"
           id="g4253">
          <path
             d="M 0,0 -3.41,0.602 -2.809,4.012 0.602,3.411 0,0 z"
             id="path4255"
             style="fill:#db021d;fill-opacity:1;fill-rule:nonzero;stroke:none" />
        </g>
        <g
           transform="translate(422.1454,737.4342)"
           id="g4257">
          <path
             d="m 0,0 c 0,1.039 -0.02,1.996 -0.06,2.854 l 1.976,0 0.04,-1.516 c 0.639,1.117 1.597,1.735 2.895,1.735 1.436,0 2.375,-0.658 2.794,-1.875 0.699,1.217 1.736,1.875 3.133,1.875 2.296,0 3.114,-1.516 3.114,-3.911 l 0,-6.368 -2.015,0 0,6.248 c 0,1.437 -0.3,2.595 -1.837,2.595 -1.457,0 -2.096,-1.198 -2.096,-2.874 l 0,-5.969 -1.996,0 0,6.209 c 0,1.476 -0.279,2.634 -1.796,2.634 -1.557,0 -2.156,-1.497 -2.156,-2.935 l 0,-5.908 L 0,-7.206 0,0 z"
             id="path4259"
             style="fill:#868d91;fill-opacity:1;fill-rule:nonzero;stroke:none" />
        </g>
        <g
           transform="translate(440.1573,736.1769)"
           id="g4261">
          <path
             d="M 0,0 4.471,0 C 4.511,1.577 3.932,2.994 2.355,2.994 0.858,2.994 0.16,1.857 0,0 m -1.996,-1.138 c 0,3.095 1.137,5.469 4.411,5.469 3.054,0 4.052,-2.156 4.012,-5.589 l -6.447,0 c 0.04,-2.414 0.699,-3.612 2.355,-3.612 1.278,0 1.976,0.739 2.116,2.176 l 1.896,-0.28 C 5.988,-5.129 4.55,-6.168 2.295,-6.168 c -3.133,0 -4.291,2.017 -4.291,5.03"
             id="path4263"
             style="fill:#868d91;fill-opacity:1;fill-rule:nonzero;stroke:none" />
        </g>
        <g
           transform="translate(448.2009,733.0433)"
           id="g4265">
          <path
             d="m 0,0 1.976,0.299 c 0.039,-1.317 0.639,-2.055 1.816,-2.055 0.978,0 1.816,0.538 1.816,1.576 0,1.058 -0.937,1.417 -2.295,1.917 -1.876,0.678 -3.114,1.157 -3.114,2.933 0,1.996 1.837,2.794 3.713,2.794 2.216,0 3.333,-0.877 3.473,-2.774 L 5.429,4.41 C 5.469,5.669 4.85,6.208 3.792,6.208 2.953,6.208 2.155,5.788 2.155,4.87 2.155,4.052 2.894,3.593 4.192,3.114 6.147,2.395 7.605,2.036 7.605,0.08 7.605,-2.096 5.868,-3.034 3.712,-3.034 1.337,-3.034 0.08,-1.976 0,0"
             id="path4267"
             style="fill:#868d91;fill-opacity:1;fill-rule:nonzero;stroke:none" />
        </g>
        <g
           transform="translate(457.43201,733.0433)"
           id="g4269">
          <path
             d="m 0,0 1.976,0.299 c 0.04,-1.317 0.639,-2.055 1.816,-2.055 0.979,0 1.817,0.538 1.817,1.576 0,1.058 -0.939,1.417 -2.296,1.917 C 1.437,2.415 0.2,2.894 0.2,4.67 c 0,1.996 1.836,2.794 3.712,2.794 2.215,0 3.334,-0.877 3.473,-2.774 L 5.429,4.41 C 5.469,5.669 4.85,6.208 3.792,6.208 2.954,6.208 2.156,5.788 2.156,4.87 2.156,4.052 2.894,3.593 4.192,3.114 6.148,2.395 7.605,2.036 7.605,0.08 7.605,-2.096 5.869,-3.034 3.713,-3.034 1.337,-3.034 0.08,-1.976 0,0"
             id="path4271"
             style="fill:#868d91;fill-opacity:1;fill-rule:nonzero;stroke:none" />
        </g>
        <g
           transform="translate(468.6331,736.1769)"
           id="g4273">
          <path
             d="M 0,0 4.471,0 C 4.511,1.577 3.932,2.994 2.355,2.994 0.859,2.994 0.16,1.857 0,0 m -1.995,-1.138 c 0,3.095 1.137,5.469 4.41,5.469 3.055,0 4.052,-2.156 4.013,-5.589 l -6.448,0 c 0.04,-2.414 0.699,-3.612 2.355,-3.612 1.278,0 1.977,0.739 2.116,2.176 l 1.897,-0.28 c -0.36,-2.155 -1.797,-3.194 -4.052,-3.194 -3.134,0 -4.291,2.017 -4.291,5.03"
             id="path4275"
             style="fill:#868d91;fill-opacity:1;fill-rule:nonzero;stroke:none" />
        </g>
        <g
           transform="translate(500.744,735.2587)"
           id="g4277">
          <path
             d="m 0,0 -0.698,0 c -2.156,0 -3.374,-0.659 -3.374,-2.135 0,-1.139 0.76,-1.817 1.797,-1.817 1.777,0 2.295,1.417 2.295,3.413 L 0,0 z m -6.068,-2.255 c 0,2.934 2.775,3.433 5.549,3.433 l 0.519,0 0,0.519 c 0,1.417 -0.4,2.295 -1.776,2.295 -1.098,0 -1.697,-0.539 -1.757,-1.677 l -1.957,0.26 c 0.141,1.916 1.658,2.674 3.714,2.674 2.594,0 3.732,-0.957 3.732,-3.612 l 0,-3.194 c 0,-1.297 0.06,-2.495 0.161,-3.473 l -1.897,0 c -0.02,0.22 -0.06,1.059 -0.1,1.417 -0.659,-1.078 -1.676,-1.636 -3.054,-1.636 -1.876,0 -3.134,1.097 -3.134,2.994"
             id="path4279"
             style="fill:#868d91;fill-opacity:1;fill-rule:nonzero;stroke:none" />
        </g>
        <g
           transform="translate(505.2823,738.11279)"
           id="g4281">
          <path
             d="m 0,0 c 0,0.639 -0.02,1.358 -0.059,2.176 l 1.995,0 0.021,-1.497 c 0.698,1.117 1.696,1.716 3.013,1.716 2.136,0 3.194,-1.237 3.194,-3.612 l 0,-6.667 -1.996,0 0,5.948 c 0,1.577 -0.16,2.894 -1.876,2.894 -1.577,0 -2.296,-1.357 -2.296,-3.333 l 0,-5.509 L 0,-7.884 0,0 z"
             id="path4283"
             style="fill:#868d91;fill-opacity:1;fill-rule:nonzero;stroke:none" />
        </g>
        <g
           transform="translate(518.1124,735.9171)"
           id="g4285">
          <path
             d="m 0,0 3.753,4.371 2.375,0 -3.892,-4.31 4.271,-5.75 -2.435,0 L 0,0 z m -2.036,8.742 2.016,0 0,-14.431 -2.016,0 0,14.431 z"
             id="path4287"
             style="fill:#868d91;fill-opacity:1;fill-rule:nonzero;stroke:none" />
        </g>
        <g
           transform="translate(527.17551,738.9113)"
           id="g4289">
          <path
             d="m 0,0 -1.737,0 0,1.377 1.737,0 0,1.318 c 0,2.055 0.678,3.174 2.673,3.174 0.34,0 0.8,-0.02 1.478,-0.08 l 0,-1.417 c -0.2,0.019 -0.4,0.019 -0.678,0.019 -1.179,0 -1.478,-0.539 -1.478,-1.717 l 0,-1.297 2.035,0 0,-1.377 -2.035,0 0,-8.683 L 0,-8.683 0,0 z"
             id="path4291"
             style="fill:#868d91;fill-opacity:1;fill-rule:nonzero;stroke:none" />
        </g>
        <g
           transform="translate(532.9424,733.50211)"
           id="g4293">
          <path
             d="m 0,0 0,6.786 2.017,0 0,-6.008 c 0,-1.576 0.159,-2.874 1.896,-2.874 1.517,0 2.255,1.159 2.255,3.194 l 0,5.688 1.996,0 0,-7.164 c 0,-0.86 0.02,-1.817 0.08,-2.896 l -1.995,0 -0.041,1.478 C 5.489,-2.874 4.512,-3.493 3.254,-3.493 1.078,-3.493 0,-2.315 0,0"
             id="path4295"
             style="fill:#868d91;fill-opacity:1;fill-rule:nonzero;stroke:none" />
        </g>
        <g
           transform="translate(543.78,737.7962)"
           id="g4297">
          <path
             d="m 0,0 c 0,0.3 -0.039,2.197 -0.06,2.495 l 1.937,0 0.06,-1.557 c 0.618,1.118 1.576,1.738 2.815,1.738 0.14,0 0.32,-0.02 0.439,-0.061 L 4.944,0.843 C 4.882,0.857 4.711,0.879 4.533,0.879 2.835,0.879 1.996,-0.179 1.996,-2.037 l 0,-5.531 -1.996,0 C 0.02,-5.91 0.02,-0.738 0,0"
             id="path4299"
             style="fill:#868d91;fill-opacity:1;fill-rule:nonzero;stroke:none" />
        </g>
        <g
           transform="translate(483.08839,738.9113)"
           id="g4301">
          <path
             d="m 0,0 -1.736,0 0,1.377 1.736,0 0,1.318 c 0,2.055 0.679,3.174 2.675,3.174 0.339,0 0.798,-0.02 1.477,-0.08 l 0,-1.417 C 3.953,4.391 3.753,4.391 3.473,4.391 2.296,4.391 1.996,3.852 1.996,2.674 l 0,-1.297 2.037,0 0,-1.377 -2.037,0 0,-8.683 L 0,-8.683 0,0 z"
             id="path4303"
             style="fill:#868d91;fill-opacity:1;fill-rule:nonzero;stroke:none" />
        </g>
        <g
           transform="translate(488.871,737.7962)"
           id="g4305">
          <path
             d="m 0,0 c 0,0.3 -0.04,2.197 -0.06,2.495 l 1.936,0 0.061,-1.557 c 0.619,1.118 1.578,1.738 2.815,1.738 0.139,0 0.319,-0.02 0.439,-0.061 L 4.945,0.843 C 4.881,0.857 4.712,0.879 4.533,0.879 2.835,0.879 1.997,-0.179 1.997,-2.037 l 0,-5.531 -1.997,0 C 0.021,-5.91 0.021,-0.738 0,0"
             id="path4307"
             style="fill:#868d91;fill-opacity:1;fill-rule:nonzero;stroke:none" />
        </g>
        <g
           transform="translate(551.4985,732.602)"
           id="g4309">
          <path
             d="m 0,0 0,6.29 -1.249,0 0,1.397 1.249,0 0,1.857 2.016,0.838 0,-2.695 2.057,0 0,-1.397 -2.057,0 0,-5.731 c 0,-1.098 0.121,-1.557 1.258,-1.557 0.16,0 0.579,0.04 0.859,0.079 l 0,-1.438 C 3.654,-2.436 3.134,-2.456 2.596,-2.456 0.759,-2.456 0,-1.857 0,0"
             id="path4311"
             style="fill:#868d91;fill-opacity:1;fill-rule:nonzero;stroke:none" />
        </g>
      </g>
    </g>
  </g>
</svg>
